{
  "version": "0.6.1",
  "oversampleFactor": 8.0,
  "oversampleQuality": 7.0,
  "oversampleNumIn": 0.0,
  "oversampleNumOut": 2.0,
  "idleDetect": 1.0,
  "modules": [
    {
      "plugin": "Core",
      "version": "0.6.1",
      "vst2_unique_param_base_id": 1,
      "model": "AudioInterface",
      "pos": [
        64,
        0
      ],
      "params": [],
      "data": {
        "audio": {
          "driver": 0,
          "deviceName": "",
          "offset": 0,
          "maxChannels": 8,
          "sampleRate": 44100,
          "blockSize": 256
        }
      }
    },
    {
      "plugin": "Core",
      "version": "0.6.1",
      "vst2_unique_param_base_id": 2,
      "model": "MIDIToCVInterface",
      "pos": [
        0,
        0
      ],
      "params": [],
      "data": {
        "divisions": [
          24,
          6
        ],
        "midi": {
          "driver": -17545,
          "deviceName": "VST MIDI Input Device",
          "channel": -1
        }
      }
    },
    {
      "plugin": "Bogaudio",
      "version": "0.6.13",
      "vst2_unique_param_base_id": 7,
      "model": "Bogaudio-XCO",
      "pos": [
        8,
        0
      ],
      "params": [
        {
          "paramId": 0,
          "value": -0.94500041
        },
        {
          "paramId": 1,
          "value": -0.0209999681
        },
        {
          "paramId": 2,
          "value": 0.0
        },
        {
          "paramId": 3,
          "value": 0.0
        },
        {
          "paramId": 4,
          "value": 1.0
        },
        {
          "paramId": 5,
          "value": 0.0
        },
        {
          "paramId": 6,
          "value": 0.0
        },
        {
          "paramId": 7,
          "value": 1.0
        },
        {
          "paramId": 8,
          "value": 0.0
        },
        {
          "paramId": 9,
          "value": 0.0
        },
        {
          "paramId": 10,
          "value": 0.0
        },
        {
          "paramId": 11,
          "value": 0.660000265
        },
        {
          "paramId": 12,
          "value": 0.0
        },
        {
          "paramId": 13,
          "value": 0.0
        },
        {
          "paramId": 14,
          "value": 0.178499818
        },
        {
          "paramId": 15,
          "value": 0.0
        },
        {
          "paramId": 16,
          "value": 0.0
        }
      ]
    },
    {
      "plugin": "Fundamental",
      "version": "0.6.2",
      "vst2_unique_param_base_id": 25,
      "model": "VCA",
      "pos": [
        50,
        0
      ],
      "params": [
        {
          "paramId": 0,
          "value": 0.5
        },
        {
          "paramId": 1,
          "value": 0.983000219
        }
      ]
    },
    {
      "plugin": "AS",
      "version": "0.6.13",
      "vst2_unique_param_base_id": 34,
      "model": "ADSR",
      "pos": [
        42,
        0
      ],
      "params": [
        {
          "paramId": 0,
          "value": 0.0
        },
        {
          "paramId": 1,
          "value": 0.382999808
        },
        {
          "paramId": 2,
          "value": 0.5
        },
        {
          "paramId": 3,
          "value": 0.692000091
        }
      ]
    },
    {
      "plugin": "AS",
      "version": "0.6.13",
      "vst2_unique_param_base_id": 39,
      "model": "ADSR",
      "pos": [
        56,
        0
      ],
      "params": [
        {
          "paramId": 0,
          "value": 0.00600000005
        },
        {
          "paramId": 1,
          "value": 0.338
        },
        {
          "paramId": 2,
          "value": 0.713000119
        },
        {
          "paramId": 3,
          "value": 0.704000056
        }
      ]
    },
    {
      "plugin": "Fundamental",
      "version": "0.6.2",
      "vst2_unique_param_base_id": 43,
      "model": "VCA",
      "pos": [
        28,
        0
      ],
      "params": [
        {
          "paramId": 0,
          "value": 0.5
        },
        {
          "paramId": 1,
          "value": 1.0
        }
      ]
    },
    {
      "plugin": "bsp",
      "version": "0.6.1",
      "vst2_unique_param_base_id": 46,
      "model": "Obxd_VCF",
      "pos": [
        33,
        0
      ],
      "params": [
        {
          "paramId": 5,
          "value": 0.0
        },
        {
          "paramId": 0,
          "value": 0.254999757
        },
        {
          "paramId": 1,
          "value": 0.0
        },
        {
          "paramId": 2,
          "value": 0.0
        },
        {
          "paramId": 3,
          "value": 0.0900000334
        },
        {
          "paramId": 4,
          "value": 0.165000007
        }
      ]
    },
    {
      "plugin": "bsp",
      "version": "0.6.1",
      "vst2_unique_param_base_id": 53,
      "model": "Scanner",
      "pos": [
        33,
        1
      ],
      "params": [
        {
          "paramId": 0,
          "value": 0.0
        },
        {
          "paramId": 1,
          "value": 0.288000107
        },
        {
          "paramId": 2,
          "value": 0.632999897
        },
        {
          "paramId": 3,
          "value": 0.5205006
        },
        {
          "paramId": 5,
          "value": 0.340000004
        },
        {
          "paramId": 6,
          "value": 0.0
        },
        {
          "paramId": 7,
          "value": 0.0
        },
        {
          "paramId": 8,
          "value": 0.0
        },
        {
          "paramId": 9,
          "value": 0.0
        }
      ]
    },
    {
      "plugin": "Bogaudio",
      "version": "0.6.13",
      "vst2_unique_param_base_id": 59,
      "model": "Bogaudio-Noise",
      "pos": [
        16,
        1
      ],
      "params": []
    }
  ],
  "wires": [
    {
      "color": "#c9b70e",
      "outputModuleId": 1,
      "outputId": 1,
      "inputModuleId": 4,
      "inputId": 4
    },
    {
      "color": "#c91847",
      "outputModuleId": 1,
      "outputId": 1,
      "inputModuleId": 5,
      "inputId": 4
    },
    {
      "color": "#0c8e15",
      "outputModuleId": 1,
      "outputId": 0,
      "inputModuleId": 2,
      "inputId": 14
    },
    {
      "color": "#0986ad",
      "outputModuleId": 5,
      "outputId": 0,
      "inputModuleId": 3,
      "inputId": 3
    },
    {
      "color": "#c9b70e",
      "outputModuleId": 3,
      "outputId": 1,
      "inputModuleId": 0,
      "inputId": 0
    },
    {
      "color": "#c91847",
      "outputModuleId": 3,
      "outputId": 1,
      "inputModuleId": 0,
      "inputId": 1
    },
    {
      "color": "#0c8e15",
      "outputModuleId": 6,
      "outputId": 1,
      "inputModuleId": 7,
      "inputId": 3
    },
    {
      "color": "#0986ad",
      "outputModuleId": 7,
      "outputId": 0,
      "inputModuleId": 3,
      "inputId": 5
    },
    {
      "color": "#c9b70e",
      "outputModuleId": 4,
      "outputId": 0,
      "inputModuleId": 7,
      "inputId": 0
    },
    {
      "color": "#0c8e15",
      "outputModuleId": 2,
      "outputId": 0,
      "inputModuleId": 8,
      "inputId": 0
    },
    {
      "color": "#0986ad",
      "outputModuleId": 2,
      "outputId": 1,
      "inputModuleId": 8,
      "inputId": 1
    },
    {
      "color": "#0986ad",
      "outputModuleId": 2,
      "outputId": 2,
      "inputModuleId": 8,
      "inputId": 2
    },
    {
      "color": "#c9b70e",
      "outputModuleId": 2,
      "outputId": 3,
      "inputModuleId": 8,
      "inputId": 3
    },
    {
      "color": "#c91847",
      "outputModuleId": 8,
      "outputId": 0,
      "inputModuleId": 8,
      "inputId": 16
    },
    {
      "color": "#c9b70e",
      "outputModuleId": 8,
      "outputId": 0,
      "inputModuleId": 6,
      "inputId": 5
    },
    {
      "color": "#0c8e15",
      "outputModuleId": 9,
      "outputId": 3,
      "inputModuleId": 8,
      "inputId": 6
    }
  ]
}