{
  "version": "0.6.1",
  "oversampleFactor": 1.0,
  "oversampleQuality": 7.0,
  "oversampleNumIn": 0.0,
  "oversampleNumOut": 2.0,
  "idleDetect": 1.0,
  "idleGraceSec": 0.75,
  "idleOutputSec": 0.200000003,
  "modules": [
    {
      "plugin": "Core",
      "version": "0.6.1",
      "vst2_unique_param_base_id": 1,
      "model": "AudioInterface",
      "pos": [
        65,
        0
      ],
      "params": [],
      "data": {
        "audio": {
          "driver": 0,
          "deviceName": "",
          "offset": 0,
          "maxChannels": 8,
          "sampleRate": 44100,
          "blockSize": 256
        }
      }
    },
    {
      "plugin": "Core",
      "version": "0.6.1",
      "vst2_unique_param_base_id": 2,
      "model": "MIDIToCVInterface",
      "pos": [
        0,
        0
      ],
      "params": [],
      "data": {
        "divisions": [
          24,
          6
        ],
        "midi": {
          "driver": -17545,
          "deviceName": "VST MIDI Input Device",
          "channel": -1
        }
      }
    },
    {
      "plugin": "Fundamental",
      "version": "0.6.2",
      "vst2_unique_param_base_id": 25,
      "model": "VCA",
      "pos": [
        49,
        0
      ],
      "params": [
        {
          "paramId": 0,
          "value": 0.5
        },
        {
          "paramId": 1,
          "value": 0.498500377
        }
      ]
    },
    {
      "plugin": "AS",
      "version": "0.6.13",
      "vst2_unique_param_base_id": 34,
      "model": "ADSR",
      "pos": [
        41,
        0
      ],
      "params": [
        {
          "paramId": 0,
          "value": 0.0
        },
        {
          "paramId": 1,
          "value": 0.619999826
        },
        {
          "paramId": 2,
          "value": 0.5
        },
        {
          "paramId": 3,
          "value": 0.692000091
        }
      ]
    },
    {
      "plugin": "AS",
      "version": "0.6.13",
      "vst2_unique_param_base_id": 39,
      "model": "ADSR",
      "pos": [
        54,
        0
      ],
      "params": [
        {
          "paramId": 0,
          "value": 0.00600000005
        },
        {
          "paramId": 1,
          "value": 0.338
        },
        {
          "paramId": 2,
          "value": 0.713000119
        },
        {
          "paramId": 3,
          "value": 0.698000133
        }
      ]
    },
    {
      "plugin": "Fundamental",
      "version": "0.6.2",
      "vst2_unique_param_base_id": 43,
      "model": "VCA",
      "pos": [
        28,
        0
      ],
      "params": [
        {
          "paramId": 0,
          "value": 0.5
        },
        {
          "paramId": 1,
          "value": 1.0
        }
      ]
    },
    {
      "plugin": "bsp",
      "version": "0.6.1",
      "vst2_unique_param_base_id": 46,
      "model": "Obxd_VCF",
      "pos": [
        33,
        0
      ],
      "params": [
        {
          "paramId": 5,
          "value": 1.0
        },
        {
          "paramId": 0,
          "value": -0.148999929
        },
        {
          "paramId": 1,
          "value": 0.0
        },
        {
          "paramId": 2,
          "value": 0.223500088
        },
        {
          "paramId": 3,
          "value": 0.134999752
        },
        {
          "paramId": 4,
          "value": 0.471500456
        }
      ]
    },
    {
      "plugin": "AudibleInstruments",
      "version": "0.6.3",
      "vst2_unique_param_base_id": 53,
      "model": "Braids",
      "pos": [
        12,
        0
      ],
      "params": [
        {
          "paramId": 6,
          "value": 0.111000001
        },
        {
          "paramId": 0,
          "value": 0.0
        },
        {
          "paramId": 1,
          "value": 0.0
        },
        {
          "paramId": 2,
          "value": 0.0
        },
        {
          "paramId": 3,
          "value": 0.0110000446
        },
        {
          "paramId": 4,
          "value": 0.0
        },
        {
          "paramId": 5,
          "value": 0.5
        }
      ],
      "data": {
        "settings": [
          5,
          0,
          0,
          0,
          0,
          0,
          0,
          0,
          0,
          0,
          0,
          0,
          0,
          0,
          0,
          0,
          0,
          0,
          0,
          0
        ],
        "lowCpu": false
      }
    },
    {
      "plugin": "21kHz",
      "version": "0.6.1",
      "vst2_unique_param_base_id": 61,
      "model": "kHzD_Inf",
      "pos": [
        8,
        0
      ],
      "params": [
        {
          "paramId": 0,
          "value": -1.0
        },
        {
          "paramId": 1,
          "value": 0.0
        },
        {
          "paramId": 2,
          "value": 0.0
        },
        {
          "paramId": 3,
          "value": 0.0
        },
        {
          "paramId": 4,
          "value": 0.0
        },
        {
          "paramId": 5,
          "value": 0.0
        }
      ]
    },
    {
      "plugin": "LindenbergResearch",
      "version": "0.6.4",
      "vst2_unique_param_base_id": 90,
      "model": "Westcoast VCS",
      "pos": [
        15,
        1
      ],
      "params": [
        {
          "paramId": 0,
          "value": 8.23000622
        },
        {
          "paramId": 3,
          "value": -4.46400023
        },
        {
          "paramId": 4,
          "value": 2.0
        },
        {
          "paramId": 1,
          "value": 0.0
        },
        {
          "paramId": 2,
          "value": 0.0
        }
      ],
      "gestaltID": 1,
      "gradient": true,
      "patina": false,
      "patina_a_x": 0.0,
      "patina_a_y": 0.0,
      "patina_b_x": 0.0,
      "patina_b_y": 0.0
    },
    {
      "plugin": "Southpole",
      "version": "0.6.1",
      "vst2_unique_param_base_id": 99,
      "model": "Abr",
      "pos": [
        9,
        1
      ],
      "params": [
        {
          "paramId": 0,
          "value": 0.0
        },
        {
          "paramId": 1,
          "value": 0.0
        },
        {
          "paramId": 2,
          "value": 0.0
        },
        {
          "paramId": 3,
          "value": 0.0
        },
        {
          "paramId": 4,
          "value": 0.0
        },
        {
          "paramId": 5,
          "value": 0.0
        },
        {
          "paramId": 6,
          "value": 0.0
        },
        {
          "paramId": 7,
          "value": 0.0
        }
      ],
      "data": {
        "swStates": [
          false,
          false,
          false,
          false,
          false,
          false,
          false,
          false
        ]
      }
    },
    {
      "plugin": "Fundamental",
      "version": "0.6.2",
      "vst2_unique_param_base_id": 108,
      "model": "VCA",
      "pos": [
        4,
        1
      ],
      "params": [
        {
          "paramId": 0,
          "value": 1.0
        },
        {
          "paramId": 1,
          "value": 0.293500006
        }
      ]
    },
    {
      "plugin": "Bogaudio",
      "version": "0.6.13",
      "vst2_unique_param_base_id": 114,
      "model": "Bogaudio-VCAmp",
      "pos": [
        1,
        1
      ],
      "params": [
        {
          "paramId": 0,
          "value": 0.998333216
        }
      ]
    },
    {
      "plugin": "huaba",
      "version": "0.6.1",
      "vst2_unique_param_base_id": 115,
      "model": "EQ3",
      "pos": [
        62,
        0
      ],
      "params": [
        {
          "paramId": 2,
          "value": 1.0
        },
        {
          "paramId": 1,
          "value": 1.0720005
        },
        {
          "paramId": 0,
          "value": 0.86599803
        }
      ]
    }
  ],
  "wires": [
    {
      "color": "#c9b70e",
      "outputModuleId": 1,
      "outputId": 1,
      "inputModuleId": 3,
      "inputId": 4
    },
    {
      "color": "#c91847",
      "outputModuleId": 1,
      "outputId": 1,
      "inputModuleId": 4,
      "inputId": 4
    },
    {
      "color": "#0986ad",
      "outputModuleId": 4,
      "outputId": 0,
      "inputModuleId": 2,
      "inputId": 3
    },
    {
      "color": "#c9b70e",
      "outputModuleId": 2,
      "outputId": 1,
      "inputModuleId": 13,
      "inputId": 0
    },
    {
      "color": "#0c8e15",
      "outputModuleId": 5,
      "outputId": 1,
      "inputModuleId": 6,
      "inputId": 3
    },
    {
      "color": "#c9b70e",
      "outputModuleId": 3,
      "outputId": 0,
      "inputModuleId": 6,
      "inputId": 0
    },
    {
      "color": "#0c8e15",
      "outputModuleId": 1,
      "outputId": 0,
      "inputModuleId": 8,
      "inputId": 1
    },
    {
      "color": "#0986ad",
      "outputModuleId": 8,
      "outputId": 0,
      "inputModuleId": 7,
      "inputId": 1
    },
    {
      "color": "#c9b70e",
      "outputModuleId": 7,
      "outputId": 0,
      "inputModuleId": 9,
      "inputId": 0
    },
    {
      "color": "#c91847",
      "outputModuleId": 9,
      "outputId": 0,
      "inputModuleId": 12,
      "inputId": 1
    },
    {
      "color": "#0986ad",
      "outputModuleId": 7,
      "outputId": 0,
      "inputModuleId": 11,
      "inputId": 5
    },
    {
      "color": "#c9b70e",
      "outputModuleId": 10,
      "outputId": 0,
      "inputModuleId": 5,
      "inputId": 5
    },
    {
      "color": "#c91847",
      "outputModuleId": 11,
      "outputId": 1,
      "inputModuleId": 10,
      "inputId": 8
    },
    {
      "color": "#0c8e15",
      "outputModuleId": 12,
      "outputId": 0,
      "inputModuleId": 10,
      "inputId": 0
    },
    {
      "color": "#0986ad",
      "outputModuleId": 6,
      "outputId": 0,
      "inputModuleId": 2,
      "inputId": 5
    },
    {
      "color": "#0c8e15",
      "outputModuleId": 13,
      "outputId": 0,
      "inputModuleId": 0,
      "inputId": 0
    },
    {
      "color": "#0986ad",
      "outputModuleId": 13,
      "outputId": 0,
      "inputModuleId": 0,
      "inputId": 1
    }
  ]
}