{
  "version": "0.6.1",
  "oversampleFactor": 1.0,
  "oversampleQuality": 7.0,
  "oversampleNumIn": 8.0,
  "oversampleNumOut": 8.0,
  "idleDetect": 0.0,
  "modules": [
    {
      "plugin": "Core",
      "version": "0.6.1",
      "vst2_unique_param_base_id": 1,
      "model": "AudioInterface",
      "pos": [
        64,
        0
      ],
      "params": [],
      "data": {
        "audio": {
          "driver": 0,
          "deviceName": "",
          "offset": 0,
          "maxChannels": 8,
          "sampleRate": 44100,
          "blockSize": 256
        }
      }
    },
    {
      "plugin": "Core",
      "version": "0.6.1",
      "vst2_unique_param_base_id": 2,
      "model": "MIDIToCVInterface",
      "pos": [
        0,
        0
      ],
      "params": [],
      "data": {
        "divisions": [
          24,
          6
        ],
        "midi": {
          "driver": -17545,
          "deviceName": "VST MIDI Input Device",
          "channel": -1
        }
      }
    },
    {
      "plugin": "Bogaudio",
      "version": "0.6.13",
      "vst2_unique_param_base_id": 7,
      "model": "Bogaudio-XCO",
      "pos": [
        8,
        0
      ],
      "params": [
        {
          "paramId": 0,
          "value": -1.0
        },
        {
          "paramId": 1,
          "value": 0.0
        },
        {
          "paramId": 2,
          "value": 0.0
        },
        {
          "paramId": 3,
          "value": 0.0
        },
        {
          "paramId": 4,
          "value": 1.0
        },
        {
          "paramId": 5,
          "value": 0.0
        },
        {
          "paramId": 6,
          "value": 0.0
        },
        {
          "paramId": 7,
          "value": 1.0
        },
        {
          "paramId": 8,
          "value": 0.0
        },
        {
          "paramId": 9,
          "value": 0.0
        },
        {
          "paramId": 10,
          "value": 0.0
        },
        {
          "paramId": 11,
          "value": 0.660000265
        },
        {
          "paramId": 12,
          "value": 0.0
        },
        {
          "paramId": 13,
          "value": 0.0
        },
        {
          "paramId": 14,
          "value": 0.0
        },
        {
          "paramId": 15,
          "value": 0.0
        },
        {
          "paramId": 16,
          "value": 0.0
        }
      ]
    },
    {
      "plugin": "Fundamental",
      "version": "0.6.2",
      "vst2_unique_param_base_id": 25,
      "model": "VCA",
      "pos": [
        51,
        0
      ],
      "params": [
        {
          "paramId": 0,
          "value": 0.5
        },
        {
          "paramId": 1,
          "value": 0.504500091
        }
      ]
    },
    {
      "plugin": "AS",
      "version": "0.6.13",
      "vst2_unique_param_base_id": 34,
      "model": "ADSR",
      "pos": [
        43,
        0
      ],
      "params": [
        {
          "paramId": 0,
          "value": 0.0
        },
        {
          "paramId": 1,
          "value": 0.803000093
        },
        {
          "paramId": 2,
          "value": 0.5
        },
        {
          "paramId": 3,
          "value": 0.692000091
        }
      ]
    },
    {
      "plugin": "AS",
      "version": "0.6.13",
      "vst2_unique_param_base_id": 39,
      "model": "ADSR",
      "pos": [
        56,
        0
      ],
      "params": [
        {
          "paramId": 0,
          "value": 0.00600000005
        },
        {
          "paramId": 1,
          "value": 0.338
        },
        {
          "paramId": 2,
          "value": 0.713000119
        },
        {
          "paramId": 3,
          "value": 0.128000036
        }
      ]
    },
    {
      "plugin": "bsp",
      "version": "0.6.1",
      "vst2_unique_param_base_id": 46,
      "model": "Obxd_VCF",
      "pos": [
        35,
        0
      ],
      "params": [
        {
          "paramId": 5,
          "value": 0.0
        },
        {
          "paramId": 0,
          "value": -0.0120002031
        },
        {
          "paramId": 1,
          "value": 0.0
        },
        {
          "paramId": 2,
          "value": 0.0419999771
        },
        {
          "paramId": 3,
          "value": 0.246000051
        },
        {
          "paramId": 4,
          "value": 0.178999931
        }
      ]
    },
    {
      "plugin": "21kHz",
      "version": "0.6.1",
      "vst2_unique_param_base_id": 53,
      "model": "kHzD_Inf",
      "pos": [
        0,
        1
      ],
      "params": [
        {
          "paramId": 0,
          "value": 0.0
        },
        {
          "paramId": 1,
          "value": 0.0
        },
        {
          "paramId": 2,
          "value": 0.0
        },
        {
          "paramId": 3,
          "value": 0.0
        },
        {
          "paramId": 4,
          "value": 0.0
        },
        {
          "paramId": 5,
          "value": 0.0
        }
      ]
    },
    {
      "plugin": "Autodafe",
      "version": "0.6.1",
      "vst2_unique_param_base_id": 66,
      "model": "Multiple 1x8",
      "pos": [
        7,
        1
      ],
      "params": []
    },
    {
      "plugin": "Autodafe",
      "version": "0.6.1",
      "vst2_unique_param_base_id": 67,
      "model": "Multiple 1x8",
      "pos": [
        10,
        1
      ],
      "params": []
    },
    {
      "plugin": "bsp",
      "version": "0.6.1",
      "vst2_unique_param_base_id": 67,
      "model": "AttenuMixer",
      "pos": [
        4,
        1
      ],
      "params": [
        {
          "paramId": 8,
          "value": 0.0
        },
        {
          "paramId": 9,
          "value": 0.0
        },
        {
          "paramId": 0,
          "value": 1.0
        },
        {
          "paramId": 1,
          "value": 0.0
        },
        {
          "paramId": 2,
          "value": 0.796000004
        },
        {
          "paramId": 3,
          "value": 0.0
        },
        {
          "paramId": 4,
          "value": 0.5
        },
        {
          "paramId": 5,
          "value": 0.0
        },
        {
          "paramId": 6,
          "value": 0.25
        },
        {
          "paramId": 7,
          "value": 0.0
        }
      ]
    },
    {
      "plugin": "Valley",
      "version": "0.6.16",
      "vst2_unique_param_base_id": 78,
      "model": "Dexter",
      "pos": [
        13,
        1
      ],
      "params": [
        {
          "paramId": 3,
          "value": 2.0
        },
        {
          "paramId": 4,
          "value": 0.0
        },
        {
          "paramId": 5,
          "value": 0.0
        },
        {
          "paramId": 0,
          "value": 21.0
        },
        {
          "paramId": 1,
          "value": 10.0
        },
        {
          "paramId": 2,
          "value": 0.0
        },
        {
          "paramId": 6,
          "value": 2.0
        },
        {
          "paramId": 7,
          "value": 0.0
        },
        {
          "paramId": 8,
          "value": 0.0
        },
        {
          "paramId": 9,
          "value": 6.0
        },
        {
          "paramId": 10,
          "value": -0.0449998975
        },
        {
          "paramId": 11,
          "value": 0.0
        },
        {
          "paramId": 12,
          "value": 0.0
        },
        {
          "paramId": 13,
          "value": 0.0
        },
        {
          "paramId": 14,
          "value": 0.0
        },
        {
          "paramId": 15,
          "value": 0.0
        },
        {
          "paramId": 16,
          "value": 0.0
        },
        {
          "paramId": 17,
          "value": 0.0
        },
        {
          "paramId": 18,
          "value": 0.0
        },
        {
          "paramId": 19,
          "value": 0.0
        },
        {
          "paramId": 22,
          "value": 0.0
        },
        {
          "paramId": 23,
          "value": 0.0
        },
        {
          "paramId": 140,
          "value": 0.0
        },
        {
          "paramId": 24,
          "value": 3.0
        },
        {
          "paramId": 25,
          "value": -0.491000116
        },
        {
          "paramId": 26,
          "value": -0.0247499794
        },
        {
          "paramId": 27,
          "value": 0.211500019
        },
        {
          "paramId": 28,
          "value": 0.0
        },
        {
          "paramId": 29,
          "value": 1.0
        },
        {
          "paramId": 40,
          "value": 0.0
        },
        {
          "paramId": 30,
          "value": 0.0
        },
        {
          "paramId": 31,
          "value": 0.0
        },
        {
          "paramId": 33,
          "value": 0.0
        },
        {
          "paramId": 32,
          "value": 0.0
        },
        {
          "paramId": 34,
          "value": 0.0
        },
        {
          "paramId": 35,
          "value": 0.0
        },
        {
          "paramId": 36,
          "value": 0.0
        },
        {
          "paramId": 37,
          "value": 0.0
        },
        {
          "paramId": 39,
          "value": 0.0
        },
        {
          "paramId": 92,
          "value": 0.0240000486
        },
        {
          "paramId": 93,
          "value": 0.0
        },
        {
          "paramId": 94,
          "value": -0.023999989
        },
        {
          "paramId": 95,
          "value": 0.0
        },
        {
          "paramId": 96,
          "value": 0.0
        },
        {
          "paramId": 97,
          "value": 0.0
        },
        {
          "paramId": 98,
          "value": 0.0
        },
        {
          "paramId": 99,
          "value": 0.0
        },
        {
          "paramId": 100,
          "value": 0.00499987602
        },
        {
          "paramId": 101,
          "value": 0.0
        },
        {
          "paramId": 102,
          "value": 0.258000135
        },
        {
          "paramId": 103,
          "value": 0.0
        },
        {
          "paramId": 41,
          "value": 3.0
        },
        {
          "paramId": 42,
          "value": 0.0
        },
        {
          "paramId": 43,
          "value": -0.00600004196
        },
        {
          "paramId": 44,
          "value": 0.14850004
        },
        {
          "paramId": 45,
          "value": 0.0
        },
        {
          "paramId": 46,
          "value": 0.0389999487
        },
        {
          "paramId": 57,
          "value": 0.0
        },
        {
          "paramId": 47,
          "value": 0.0
        },
        {
          "paramId": 48,
          "value": 0.0
        },
        {
          "paramId": 50,
          "value": 0.0
        },
        {
          "paramId": 49,
          "value": 0.0
        },
        {
          "paramId": 51,
          "value": 0.0
        },
        {
          "paramId": 52,
          "value": 0.0
        },
        {
          "paramId": 53,
          "value": 0.0
        },
        {
          "paramId": 54,
          "value": 0.0
        },
        {
          "paramId": 56,
          "value": 3.0
        },
        {
          "paramId": 104,
          "value": 0.0
        },
        {
          "paramId": 105,
          "value": -0.365999997
        },
        {
          "paramId": 106,
          "value": 0.0
        },
        {
          "paramId": 107,
          "value": 0.0
        },
        {
          "paramId": 108,
          "value": 0.0
        },
        {
          "paramId": 109,
          "value": 0.0
        },
        {
          "paramId": 110,
          "value": 0.0
        },
        {
          "paramId": 111,
          "value": 0.0
        },
        {
          "paramId": 112,
          "value": 0.0
        },
        {
          "paramId": 113,
          "value": -0.276000142
        },
        {
          "paramId": 114,
          "value": -0.540000439
        },
        {
          "paramId": 115,
          "value": 0.0
        },
        {
          "paramId": 58,
          "value": 4.0
        },
        {
          "paramId": 59,
          "value": 0.0
        },
        {
          "paramId": 60,
          "value": -0.0127499998
        },
        {
          "paramId": 61,
          "value": 0.744000077
        },
        {
          "paramId": 62,
          "value": 0.0
        },
        {
          "paramId": 63,
          "value": 0.0480000228
        },
        {
          "paramId": 74,
          "value": 0.0
        },
        {
          "paramId": 64,
          "value": 0.0
        },
        {
          "paramId": 65,
          "value": 0.0
        },
        {
          "paramId": 67,
          "value": 0.0
        },
        {
          "paramId": 66,
          "value": 0.0
        },
        {
          "paramId": 68,
          "value": 0.0
        },
        {
          "paramId": 69,
          "value": 0.0
        },
        {
          "paramId": 70,
          "value": 0.0
        },
        {
          "paramId": 71,
          "value": 0.0
        },
        {
          "paramId": 73,
          "value": 0.0
        },
        {
          "paramId": 116,
          "value": 0.0
        },
        {
          "paramId": 117,
          "value": 0.0
        },
        {
          "paramId": 118,
          "value": 0.0
        },
        {
          "paramId": 119,
          "value": 0.0
        },
        {
          "paramId": 120,
          "value": 0.0
        },
        {
          "paramId": 121,
          "value": 0.0
        },
        {
          "paramId": 122,
          "value": 0.0
        },
        {
          "paramId": 123,
          "value": 0.0
        },
        {
          "paramId": 124,
          "value": 0.0
        },
        {
          "paramId": 125,
          "value": 0.0
        },
        {
          "paramId": 126,
          "value": 0.0
        },
        {
          "paramId": 127,
          "value": 0.0
        },
        {
          "paramId": 75,
          "value": 3.0
        },
        {
          "paramId": 76,
          "value": 0.0
        },
        {
          "paramId": 77,
          "value": 0.0
        },
        {
          "paramId": 78,
          "value": 0.0
        },
        {
          "paramId": 79,
          "value": 0.0
        },
        {
          "paramId": 80,
          "value": 0.0
        },
        {
          "paramId": 91,
          "value": 0.0
        },
        {
          "paramId": 81,
          "value": 0.0
        },
        {
          "paramId": 82,
          "value": 0.0
        },
        {
          "paramId": 84,
          "value": 0.0
        },
        {
          "paramId": 83,
          "value": 0.0
        },
        {
          "paramId": 85,
          "value": 0.0
        },
        {
          "paramId": 86,
          "value": 0.0
        },
        {
          "paramId": 87,
          "value": 0.0
        },
        {
          "paramId": 88,
          "value": 0.0
        },
        {
          "paramId": 90,
          "value": 0.0
        },
        {
          "paramId": 128,
          "value": 0.0
        },
        {
          "paramId": 129,
          "value": 0.0
        },
        {
          "paramId": 130,
          "value": 0.0
        },
        {
          "paramId": 131,
          "value": 0.0
        },
        {
          "paramId": 132,
          "value": 0.0
        },
        {
          "paramId": 133,
          "value": 0.0
        },
        {
          "paramId": 134,
          "value": 0.0
        },
        {
          "paramId": 135,
          "value": 0.0
        },
        {
          "paramId": 136,
          "value": 0.0
        },
        {
          "paramId": 137,
          "value": 0.0
        },
        {
          "paramId": 138,
          "value": 0.0
        },
        {
          "paramId": 139,
          "value": 0.0
        }
      ],
      "data": {
        "op1syncEnable": 0,
        "op1weakSyncEnable": 0,
        "op1PostShape": 1,
        "op1PreFade": 0,
        "op1LFO": 0,
        "op1syncMode": 0,
        "op1shapeMode": 0,
        "op1Mod1Dest": 0,
        "op1Mod2Dest": 0,
        "op1Mod3Dest": 0,
        "op1Mod4Dest": 0,
        "op2syncEnable": 0,
        "op2weakSyncEnable": 1,
        "op2PostShape": 0,
        "op2PreFade": 0,
        "op2LFO": 0,
        "op2syncMode": 0,
        "op2shapeMode": 3,
        "op2Mod1Dest": 0,
        "op2Mod2Dest": 0,
        "op2Mod3Dest": 0,
        "op2Mod4Dest": 0,
        "op3syncEnable": 0,
        "op3weakSyncEnable": 0,
        "op3PostShape": 0,
        "op3PreFade": 0,
        "op3LFO": 0,
        "op3syncMode": 0,
        "op3shapeMode": 0,
        "op3Mod1Dest": 0,
        "op3Mod2Dest": 0,
        "op3Mod3Dest": 0,
        "op3Mod4Dest": 0,
        "op4syncEnable": 0,
        "op4weakSyncEnable": 0,
        "op4PostShape": 0,
        "op4PreFade": 0,
        "op4LFO": 0,
        "op4syncMode": 0,
        "op4shapeMode": 0,
        "op4Mod1Dest": 0,
        "op4Mod2Dest": 0,
        "op4Mod3Dest": 0,
        "op4Mod4Dest": 0,
        "panelStyle": 0,
        "opSyncSource": 0,
        "masterLFO": 0,
        "fullInversion": 0,
        "indivOutputSource": 0
      }
    },
    {
      "plugin": "Valley",
      "version": "0.6.16",
      "vst2_unique_param_base_id": 220,
      "model": "Amalgam",
      "pos": [
        59,
        1
      ],
      "params": [
        {
          "paramId": 0,
          "value": 1.75600028
        },
        {
          "paramId": 1,
          "value": 1.82200003
        },
        {
          "paramId": 2,
          "value": 0.169500023
        },
        {
          "paramId": 3,
          "value": 0.103499532
        },
        {
          "paramId": 4,
          "value": 5.69135332
        },
        {
          "paramId": 5,
          "value": 0.0
        },
        {
          "paramId": 6,
          "value": 0.0
        },
        {
          "paramId": 7,
          "value": 0.0
        },
        {
          "paramId": 8,
          "value": 0.0
        },
        {
          "paramId": 9,
          "value": 0.0
        },
        {
          "paramId": 10,
          "value": 0.0
        },
        {
          "paramId": 11,
          "value": 0.0
        },
        {
          "paramId": 12,
          "value": 0.0
        },
        {
          "paramId": 13,
          "value": 0.0
        }
      ],
      "data": {
        "panelStyle": 0,
        "dcCoupled": 0
      }
    },
    {
      "plugin": "ML_modules",
      "version": "0.6.4",
      "vst2_unique_param_base_id": 235,
      "model": "Constants",
      "pos": [
        22,
        2
      ],
      "params": []
    }
  ],
  "wires": [
    {
      "color": "#c91847",
      "outputModuleId": 9,
      "outputId": 0,
      "inputModuleId": 4,
      "inputId": 4
    },
    {
      "color": "#0986ad",
      "outputModuleId": 5,
      "outputId": 0,
      "inputModuleId": 3,
      "inputId": 3
    },
    {
      "color": "#c9b70e",
      "outputModuleId": 3,
      "outputId": 1,
      "inputModuleId": 0,
      "inputId": 0
    },
    {
      "color": "#c91847",
      "outputModuleId": 3,
      "outputId": 1,
      "inputModuleId": 0,
      "inputId": 1
    },
    {
      "color": "#0986ad",
      "outputModuleId": 6,
      "outputId": 0,
      "inputModuleId": 3,
      "inputId": 5
    },
    {
      "color": "#c9b70e",
      "outputModuleId": 4,
      "outputId": 0,
      "inputModuleId": 6,
      "inputId": 0
    },
    {
      "color": "#0c8e15",
      "outputModuleId": 1,
      "outputId": 4,
      "inputModuleId": 10,
      "inputId": 1
    },
    {
      "color": "#c9b70e",
      "outputModuleId": 7,
      "outputId": 0,
      "inputModuleId": 10,
      "inputId": 0
    },
    {
      "color": "#c91847",
      "outputModuleId": 1,
      "outputId": 0,
      "inputModuleId": 7,
      "inputId": 1
    },
    {
      "color": "#0986ad",
      "outputModuleId": 1,
      "outputId": 1,
      "inputModuleId": 9,
      "inputId": 0
    },
    {
      "color": "#c9b70e",
      "outputModuleId": 8,
      "outputId": 0,
      "inputModuleId": 2,
      "inputId": 14
    },
    {
      "color": "#c91847",
      "outputModuleId": 10,
      "outputId": 0,
      "inputModuleId": 8,
      "inputId": 0
    },
    {
      "color": "#0c8e15",
      "outputModuleId": 9,
      "outputId": 1,
      "inputModuleId": 5,
      "inputId": 4
    },
    {
      "color": "#0986ad",
      "outputModuleId": 11,
      "outputId": 0,
      "inputModuleId": 12,
      "inputId": 0
    },
    {
      "color": "#0c8e15",
      "outputModuleId": 8,
      "outputId": 1,
      "inputModuleId": 11,
      "inputId": 7
    },
    {
      "color": "#0986ad",
      "outputModuleId": 11,
      "outputId": 6,
      "inputModuleId": 12,
      "inputId": 2
    },
    {
      "color": "#c9b70e",
      "outputModuleId": 12,
      "outputId": 4,
      "inputModuleId": 6,
      "inputId": 3
    },
    {
      "color": "#c91847",
      "outputModuleId": 8,
      "outputId": 2,
      "inputModuleId": 11,
      "inputId": 8
    },
    {
      "color": "#0c8e15",
      "outputModuleId": 2,
      "outputId": 4,
      "inputModuleId": 11,
      "inputId": 9
    },
    {
      "color": "#0986ad",
      "outputModuleId": 13,
      "outputId": 13,
      "inputModuleId": 11,
      "inputId": 31
    },
    {
      "color": "#c9b70e",
      "outputModuleId": 2,
      "outputId": 3,
      "inputModuleId": 11,
      "inputId": 22
    }
  ]
}