{
  "version": "0.6.1",
  "oversampleFactor": 6.0,
  "oversampleQuality": 4.0,
  "oversampleNumIn": 0.0,
  "oversampleNumOut": 2.0,
  "idleDetect": 0.0,
  "idleGraceSec": 0.75,
  "idleOutputSec": 0.200000003,
  "modules": [
    {
      "plugin": "Core",
      "version": "0.6.1",
      "vst2_unique_param_base_id": 1,
      "model": "AudioInterface",
      "pos": [
        73,
        0
      ],
      "params": [],
      "data": {
        "audio": {
          "driver": 0,
          "deviceName": "",
          "offset": 0,
          "maxChannels": 8,
          "sampleRate": 44100,
          "blockSize": 256
        }
      }
    },
    {
      "plugin": "Core",
      "version": "0.6.1",
      "vst2_unique_param_base_id": 2,
      "model": "MIDIToCVInterface",
      "pos": [
        0,
        0
      ],
      "params": [],
      "data": {
        "divisions": [
          24,
          6
        ],
        "midi": {
          "driver": -17545,
          "deviceName": "VST MIDI Input Device",
          "channel": -1
        }
      }
    },
    {
      "plugin": "Bogaudio",
      "version": "0.6.13",
      "vst2_unique_param_base_id": 7,
      "model": "Bogaudio-XCO",
      "pos": [
        8,
        0
      ],
      "params": [
        {
          "paramId": 0,
          "value": -1.0
        },
        {
          "paramId": 1,
          "value": 0.0
        },
        {
          "paramId": 2,
          "value": 0.0
        },
        {
          "paramId": 3,
          "value": 0.0
        },
        {
          "paramId": 4,
          "value": 1.0
        },
        {
          "paramId": 5,
          "value": 0.0
        },
        {
          "paramId": 6,
          "value": 0.0
        },
        {
          "paramId": 7,
          "value": 1.0
        },
        {
          "paramId": 8,
          "value": 0.0
        },
        {
          "paramId": 9,
          "value": 0.0
        },
        {
          "paramId": 10,
          "value": 0.0
        },
        {
          "paramId": 11,
          "value": 0.0
        },
        {
          "paramId": 12,
          "value": 0.0
        },
        {
          "paramId": 13,
          "value": 0.0
        },
        {
          "paramId": 14,
          "value": 0.0
        },
        {
          "paramId": 15,
          "value": 0.0
        },
        {
          "paramId": 16,
          "value": 0.0
        }
      ]
    },
    {
      "plugin": "Fundamental",
      "version": "0.6.2",
      "vst2_unique_param_base_id": 25,
      "model": "VCA",
      "pos": [
        60,
        0
      ],
      "params": [
        {
          "paramId": 0,
          "value": 0.5
        },
        {
          "paramId": 1,
          "value": 0.214999974
        }
      ]
    },
    {
      "plugin": "AS",
      "version": "0.6.13",
      "vst2_unique_param_base_id": 34,
      "model": "ADSR",
      "pos": [
        52,
        0
      ],
      "params": [
        {
          "paramId": 0,
          "value": 0.0
        },
        {
          "paramId": 1,
          "value": 0.722000003
        },
        {
          "paramId": 2,
          "value": 0.5
        },
        {
          "paramId": 3,
          "value": 0.692000091
        }
      ]
    },
    {
      "plugin": "AS",
      "version": "0.6.13",
      "vst2_unique_param_base_id": 39,
      "model": "ADSR",
      "pos": [
        65,
        0
      ],
      "params": [
        {
          "paramId": 0,
          "value": 0.00600000005
        },
        {
          "paramId": 1,
          "value": 0.241999969
        },
        {
          "paramId": 2,
          "value": 0.698000133
        },
        {
          "paramId": 3,
          "value": 0.704000056
        }
      ]
    },
    {
      "plugin": "bsp",
      "version": "0.6.1",
      "vst2_unique_param_base_id": 46,
      "model": "Obxd_VCF",
      "pos": [
        44,
        0
      ],
      "params": [
        {
          "paramId": 5,
          "value": 1.0
        },
        {
          "paramId": 0,
          "value": 0.263999462
        },
        {
          "paramId": 1,
          "value": 0.0
        },
        {
          "paramId": 2,
          "value": 0.629999697
        },
        {
          "paramId": 3,
          "value": 0.1049999
        },
        {
          "paramId": 4,
          "value": 0.398000091
        }
      ]
    },
    {
      "plugin": "21kHz",
      "version": "0.6.1",
      "vst2_unique_param_base_id": 53,
      "model": "kHzD_Inf",
      "pos": [
        0,
        1
      ],
      "params": [
        {
          "paramId": 0,
          "value": 0.0
        },
        {
          "paramId": 1,
          "value": 0.0
        },
        {
          "paramId": 2,
          "value": 0.0
        },
        {
          "paramId": 3,
          "value": 0.0
        },
        {
          "paramId": 4,
          "value": 0.0
        },
        {
          "paramId": 5,
          "value": 0.0
        }
      ]
    },
    {
      "plugin": "Autodafe",
      "version": "0.6.1",
      "vst2_unique_param_base_id": 66,
      "model": "Multiple 1x8",
      "pos": [
        7,
        1
      ],
      "params": []
    },
    {
      "plugin": "Autodafe",
      "version": "0.6.1",
      "vst2_unique_param_base_id": 67,
      "model": "Multiple 1x8",
      "pos": [
        10,
        1
      ],
      "params": []
    },
    {
      "plugin": "bsp",
      "version": "0.6.1",
      "vst2_unique_param_base_id": 67,
      "model": "AttenuMixer",
      "pos": [
        4,
        1
      ],
      "params": [
        {
          "paramId": 8,
          "value": 0.0
        },
        {
          "paramId": 9,
          "value": 0.0
        },
        {
          "paramId": 0,
          "value": 1.0
        },
        {
          "paramId": 1,
          "value": 0.0
        },
        {
          "paramId": 2,
          "value": 0.796000004
        },
        {
          "paramId": 3,
          "value": 0.0
        },
        {
          "paramId": 4,
          "value": 0.5
        },
        {
          "paramId": 5,
          "value": 0.0
        },
        {
          "paramId": 6,
          "value": 0.25
        },
        {
          "paramId": 7,
          "value": 0.0
        }
      ]
    },
    {
      "plugin": "Fundamental",
      "version": "0.6.2",
      "vst2_unique_param_base_id": 78,
      "model": "Scope",
      "pos": [
        70,
        1
      ],
      "params": [
        {
          "paramId": 0,
          "value": 0.0
        },
        {
          "paramId": 1,
          "value": 0.0
        },
        {
          "paramId": 2,
          "value": 0.0
        },
        {
          "paramId": 3,
          "value": 0.0
        },
        {
          "paramId": 4,
          "value": -14.0
        },
        {
          "paramId": 5,
          "value": 0.0
        },
        {
          "paramId": 6,
          "value": 0.0
        },
        {
          "paramId": 7,
          "value": 0.0
        }
      ],
      "data": {
        "lissajous": 0,
        "external": 0
      }
    },
    {
      "plugin": "bsp",
      "version": "0.6.1",
      "vst2_unique_param_base_id": 87,
      "model": "Legato",
      "pos": [
        14,
        1
      ],
      "params": [
        {
          "paramId": 0,
          "value": 0.143999904
        },
        {
          "paramId": 1,
          "value": 0.00450003892
        },
        {
          "paramId": 2,
          "value": 0.00849982072
        },
        {
          "paramId": 3,
          "value": 0.415499687
        },
        {
          "paramId": 4,
          "value": 0.0
        }
      ]
    },
    {
      "plugin": "Southpole",
      "version": "0.6.1",
      "vst2_unique_param_base_id": 97,
      "model": "Abr",
      "pos": [
        64,
        1
      ],
      "params": [
        {
          "paramId": 0,
          "value": 1.0
        },
        {
          "paramId": 1,
          "value": 1.0
        },
        {
          "paramId": 2,
          "value": 0.0
        },
        {
          "paramId": 3,
          "value": 0.0
        },
        {
          "paramId": 4,
          "value": 0.0
        },
        {
          "paramId": 5,
          "value": 0.0
        },
        {
          "paramId": 6,
          "value": 0.0
        },
        {
          "paramId": 7,
          "value": 0.0
        }
      ],
      "data": {
        "swStates": [
          true,
          true,
          false,
          false,
          false,
          false,
          false,
          false
        ]
      }
    },
    {
      "plugin": "Befaco",
      "version": "0.6.1",
      "vst2_unique_param_base_id": 106,
      "model": "Rampage",
      "pos": [
        17,
        1
      ],
      "params": [
        {
          "paramId": 0,
          "value": 0.0
        },
        {
          "paramId": 2,
          "value": -0.0820000768
        },
        {
          "paramId": 4,
          "value": 0.0
        },
        {
          "paramId": 6,
          "value": 0.116999947
        },
        {
          "paramId": 8,
          "value": 0.116999969
        },
        {
          "paramId": 10,
          "value": 0.0
        },
        {
          "paramId": 1,
          "value": 0.0
        },
        {
          "paramId": 3,
          "value": 0.0
        },
        {
          "paramId": 5,
          "value": 0.0
        },
        {
          "paramId": 7,
          "value": 0.0
        },
        {
          "paramId": 9,
          "value": 0.0
        },
        {
          "paramId": 11,
          "value": 0.0
        },
        {
          "paramId": 12,
          "value": 0.5
        }
      ]
    },
    {
      "plugin": "HetrickCV",
      "version": "0.6.1",
      "vst2_unique_param_base_id": 120,
      "model": "Exponent",
      "pos": [
        41,
        1
      ],
      "params": [
        {
          "paramId": 0,
          "value": -4.41500044
        },
        {
          "paramId": 1,
          "value": 1.0
        },
        {
          "paramId": 2,
          "value": 0.0
        }
      ]
    },
    {
      "plugin": "bsp",
      "version": "0.6.1",
      "vst2_unique_param_base_id": 124,
      "model": "Scanner",
      "pos": [
        54,
        1
      ],
      "params": [
        {
          "paramId": 0,
          "value": 0.0
        },
        {
          "paramId": 1,
          "value": 0.945999861
        },
        {
          "paramId": 2,
          "value": 0.267000139
        },
        {
          "paramId": 3,
          "value": 0.790000021
        },
        {
          "paramId": 5,
          "value": 0.340000004
        },
        {
          "paramId": 6,
          "value": 0.0
        },
        {
          "paramId": 7,
          "value": 0.0
        },
        {
          "paramId": 8,
          "value": 0.0
        },
        {
          "paramId": 9,
          "value": 0.0
        }
      ]
    },
    {
      "plugin": "DHE-Modules",
      "version": "0.6.4",
      "vst2_unique_param_base_id": 135,
      "model": "Cubic",
      "pos": [
        48,
        1
      ],
      "params": [
        {
          "paramId": 0,
          "value": 0.425000042
        },
        {
          "paramId": 1,
          "value": 0.491000175
        },
        {
          "paramId": 2,
          "value": 0.714499772
        },
        {
          "paramId": 3,
          "value": 0.5
        },
        {
          "paramId": 4,
          "value": 0.5
        },
        {
          "paramId": 5,
          "value": 0.902000129
        }
      ]
    },
    {
      "plugin": "bsp",
      "version": "0.6.1",
      "vst2_unique_param_base_id": 142,
      "model": "AttenuMixer",
      "pos": [
        35,
        1
      ],
      "params": [
        {
          "paramId": 8,
          "value": 0.0
        },
        {
          "paramId": 9,
          "value": 0.0
        },
        {
          "paramId": 0,
          "value": 1.0
        },
        {
          "paramId": 1,
          "value": 2.20499992
        },
        {
          "paramId": 2,
          "value": 0.796000004
        },
        {
          "paramId": 3,
          "value": 0.0
        },
        {
          "paramId": 4,
          "value": 0.5
        },
        {
          "paramId": 5,
          "value": 0.0
        },
        {
          "paramId": 6,
          "value": 0.25
        },
        {
          "paramId": 7,
          "value": 0.0
        }
      ]
    },
    {
      "plugin": "Bogaudio",
      "version": "0.6.13",
      "vst2_unique_param_base_id": 153,
      "model": "Bogaudio-VCAmp",
      "pos": [
        38,
        1
      ],
      "params": [
        {
          "paramId": 0,
          "value": 0.918833613
        }
      ]
    },
    {
      "plugin": "Fundamental",
      "version": "0.6.2",
      "vst2_unique_param_base_id": 155,
      "model": "LFO2",
      "pos": [
        37,
        0
      ],
      "params": [
        {
          "paramId": 0,
          "value": 0.0
        },
        {
          "paramId": 1,
          "value": 0.0
        },
        {
          "paramId": 2,
          "value": 5.0320015
        },
        {
          "paramId": 3,
          "value": 1.97999835
        },
        {
          "paramId": 4,
          "value": 0.996999979
        }
      ]
    }
  ],
  "wires": [
    {
      "color": "#c91847",
      "outputModuleId": 9,
      "outputId": 0,
      "inputModuleId": 4,
      "inputId": 4
    },
    {
      "color": "#0986ad",
      "outputModuleId": 5,
      "outputId": 0,
      "inputModuleId": 3,
      "inputId": 3
    },
    {
      "color": "#c9b70e",
      "outputModuleId": 3,
      "outputId": 1,
      "inputModuleId": 0,
      "inputId": 0
    },
    {
      "color": "#c91847",
      "outputModuleId": 3,
      "outputId": 1,
      "inputModuleId": 0,
      "inputId": 1
    },
    {
      "color": "#0986ad",
      "outputModuleId": 6,
      "outputId": 0,
      "inputModuleId": 3,
      "inputId": 5
    },
    {
      "color": "#c9b70e",
      "outputModuleId": 4,
      "outputId": 0,
      "inputModuleId": 6,
      "inputId": 0
    },
    {
      "color": "#0c8e15",
      "outputModuleId": 1,
      "outputId": 4,
      "inputModuleId": 10,
      "inputId": 1
    },
    {
      "color": "#c9b70e",
      "outputModuleId": 7,
      "outputId": 0,
      "inputModuleId": 10,
      "inputId": 0
    },
    {
      "color": "#c91847",
      "outputModuleId": 1,
      "outputId": 0,
      "inputModuleId": 7,
      "inputId": 1
    },
    {
      "color": "#0986ad",
      "outputModuleId": 1,
      "outputId": 1,
      "inputModuleId": 9,
      "inputId": 0
    },
    {
      "color": "#c9b70e",
      "outputModuleId": 8,
      "outputId": 0,
      "inputModuleId": 2,
      "inputId": 14
    },
    {
      "color": "#c91847",
      "outputModuleId": 10,
      "outputId": 0,
      "inputModuleId": 8,
      "inputId": 0
    },
    {
      "color": "#0c8e15",
      "outputModuleId": 9,
      "outputId": 1,
      "inputModuleId": 5,
      "inputId": 4
    },
    {
      "color": "#0c8e15",
      "outputModuleId": 2,
      "outputId": 2,
      "inputModuleId": 11,
      "inputId": 0
    },
    {
      "color": "#c9b70e",
      "outputModuleId": 2,
      "outputId": 2,
      "inputModuleId": 12,
      "inputId": 0
    },
    {
      "color": "#c91847",
      "outputModuleId": 12,
      "outputId": 0,
      "inputModuleId": 16,
      "inputId": 0
    },
    {
      "color": "#c91847",
      "outputModuleId": 2,
      "outputId": 2,
      "inputModuleId": 14,
      "inputId": 0
    },
    {
      "color": "#0986ad",
      "outputModuleId": 14,
      "outputId": 6,
      "inputModuleId": 18,
      "inputId": 0
    },
    {
      "color": "#c9b70e",
      "outputModuleId": 13,
      "outputId": 0,
      "inputModuleId": 11,
      "inputId": 1
    },
    {
      "color": "#0986ad",
      "outputModuleId": 13,
      "outputId": 0,
      "inputModuleId": 6,
      "inputId": 3
    },
    {
      "color": "#c91847",
      "outputModuleId": 2,
      "outputId": 2,
      "inputModuleId": 15,
      "inputId": 0
    },
    {
      "color": "#0c8e15",
      "outputModuleId": 15,
      "outputId": 0,
      "inputModuleId": 16,
      "inputId": 2
    },
    {
      "color": "#0986ad",
      "outputModuleId": 2,
      "outputId": 2,
      "inputModuleId": 13,
      "inputId": 0
    },
    {
      "color": "#c9b70e",
      "outputModuleId": 16,
      "outputId": 0,
      "inputModuleId": 13,
      "inputId": 8
    },
    {
      "color": "#c91847",
      "outputModuleId": 2,
      "outputId": 2,
      "inputModuleId": 17,
      "inputId": 0
    },
    {
      "color": "#0c8e15",
      "outputModuleId": 17,
      "outputId": 0,
      "inputModuleId": 16,
      "inputId": 3
    },
    {
      "color": "#c9b70e",
      "outputModuleId": 19,
      "outputId": 0,
      "inputModuleId": 16,
      "inputId": 1
    },
    {
      "color": "#0986ad",
      "outputModuleId": 18,
      "outputId": 0,
      "inputModuleId": 19,
      "inputId": 1
    },
    {
      "color": "#c9b70e",
      "outputModuleId": 20,
      "outputId": 0,
      "inputModuleId": 16,
      "inputId": 16
    },
    {
      "color": "#c91847",
      "outputModuleId": 8,
      "outputId": 1,
      "inputModuleId": 20,
      "inputId": 0
    }
  ]
}