{
  "version": "0.6.1",
  "oversampleFactor": 1.0,
  "oversampleQuality": 7.0,
  "oversampleNumIn": 8.0,
  "oversampleNumOut": 8.0,
  "idleDetect": 2.0,
  "modules": [
    {
      "plugin": "Core",
      "version": "0.6.1",
      "vst2_unique_param_base_id": 1,
      "model": "AudioInterface",
      "pos": [
        49,
        0
      ],
      "params": [],
      "data": {
        "audio": {
          "driver": 0,
          "deviceName": "",
          "offset": 0,
          "maxChannels": 8,
          "sampleRate": 44100,
          "blockSize": 256
        }
      }
    },
    {
      "plugin": "Core",
      "version": "0.6.1",
      "vst2_unique_param_base_id": 2,
      "model": "MIDIToCVInterface",
      "pos": [
        0,
        0
      ],
      "params": [],
      "data": {
        "divisions": [
          24,
          6
        ],
        "midi": {
          "driver": -17545,
          "deviceName": "VST MIDI Input Device",
          "channel": -1
        }
      }
    },
    {
      "plugin": "Fundamental",
      "version": "0.6.2",
      "vst2_unique_param_base_id": 43,
      "model": "Delay",
      "pos": [
        33,
        0
      ],
      "params": [
        {
          "paramId": 0,
          "value": 0.100999691
        },
        {
          "paramId": 1,
          "value": 0.0
        },
        {
          "paramId": 2,
          "value": 0.0
        },
        {
          "paramId": 3,
          "value": 0.0135000004
        }
      ]
    },
    {
      "plugin": "Fundamental",
      "version": "0.6.2",
      "vst2_unique_param_base_id": 48,
      "model": "Delay",
      "pos": [
        41,
        0
      ],
      "params": [
        {
          "paramId": 0,
          "value": 0.105499893
        },
        {
          "paramId": 1,
          "value": 0.0499996208
        },
        {
          "paramId": 2,
          "value": 0.0
        },
        {
          "paramId": 3,
          "value": 0.0
        }
      ]
    },
    {
      "plugin": "AS",
      "version": "0.6.13",
      "vst2_unique_param_base_id": 77,
      "model": "AtNuVrTr",
      "pos": [
        28,
        0
      ],
      "params": [
        {
          "paramId": 0,
          "value": 0.00900006294
        },
        {
          "paramId": 1,
          "value": 0.0
        },
        {
          "paramId": 2,
          "value": -0.00599998236
        },
        {
          "paramId": 3,
          "value": 0.0
        }
      ]
    },
    {
      "plugin": "Alikins",
      "version": "0.6.6",
      "vst2_unique_param_base_id": 82,
      "model": "SpecificValue",
      "pos": [
        21,
        1
      ],
      "params": [
        {
          "paramId": 0,
          "value": 0.730000615
        }
      ]
    },
    {
      "plugin": "Alikins",
      "version": "0.6.6",
      "vst2_unique_param_base_id": 85,
      "model": "SpecificValue",
      "pos": [
        38,
        1
      ],
      "params": [
        {
          "paramId": 0,
          "value": 2.41000104
        }
      ]
    },
    {
      "plugin": "Fundamental",
      "version": "0.6.2",
      "vst2_unique_param_base_id": 88,
      "model": "LFO",
      "pos": [
        8,
        0
      ],
      "params": [
        {
          "paramId": 0,
          "value": 1.0
        },
        {
          "paramId": 1,
          "value": 1.0
        },
        {
          "paramId": 2,
          "value": -1.0
        },
        {
          "paramId": 3,
          "value": 0.490500122
        },
        {
          "paramId": 5,
          "value": 0.5
        },
        {
          "paramId": 4,
          "value": 0.0
        },
        {
          "paramId": 6,
          "value": 0.0
        }
      ]
    },
    {
      "plugin": "Fundamental",
      "version": "0.6.2",
      "vst2_unique_param_base_id": 96,
      "model": "LFO",
      "pos": [
        18,
        0
      ],
      "params": [
        {
          "paramId": 0,
          "value": 1.0
        },
        {
          "paramId": 1,
          "value": 1.0
        },
        {
          "paramId": 2,
          "value": -1.60899973
        },
        {
          "paramId": 3,
          "value": 0.490500122
        },
        {
          "paramId": 5,
          "value": 0.5
        },
        {
          "paramId": 4,
          "value": 0.0
        },
        {
          "paramId": 6,
          "value": 0.0
        }
      ]
    },
    {
      "plugin": "Alikins",
      "version": "0.6.6",
      "vst2_unique_param_base_id": 104,
      "model": "SpecificValue",
      "pos": [
        10,
        1
      ],
      "params": [
        {
          "paramId": 0,
          "value": 4.22999573
        }
      ]
    }
  ],
  "wires": [
    {
      "color": "#0986ad",
      "outputModuleId": 0,
      "outputId": 0,
      "inputModuleId": 2,
      "inputId": 4
    },
    {
      "color": "#c9b70e",
      "outputModuleId": 0,
      "outputId": 1,
      "inputModuleId": 3,
      "inputId": 4
    },
    {
      "color": "#c9b70e",
      "outputModuleId": 7,
      "outputId": 0,
      "inputModuleId": 4,
      "inputId": 4
    },
    {
      "color": "#c91847",
      "outputModuleId": 8,
      "outputId": 0,
      "inputModuleId": 4,
      "inputId": 5
    },
    {
      "color": "#0c8e15",
      "outputModuleId": 4,
      "outputId": 0,
      "inputModuleId": 2,
      "inputId": 0
    },
    {
      "color": "#0986ad",
      "outputModuleId": 4,
      "outputId": 1,
      "inputModuleId": 3,
      "inputId": 0
    },
    {
      "color": "#c9b70e",
      "outputModuleId": 2,
      "outputId": 0,
      "inputModuleId": 0,
      "inputId": 0
    },
    {
      "color": "#c91847",
      "outputModuleId": 3,
      "outputId": 0,
      "inputModuleId": 0,
      "inputId": 1
    },
    {
      "color": "#0c8e15",
      "outputModuleId": 5,
      "outputId": 0,
      "inputModuleId": 4,
      "inputId": 0
    },
    {
      "color": "#0986ad",
      "outputModuleId": 5,
      "outputId": 0,
      "inputModuleId": 4,
      "inputId": 1
    },
    {
      "color": "#c9b70e",
      "outputModuleId": 6,
      "outputId": 0,
      "inputModuleId": 2,
      "inputId": 3
    },
    {
      "color": "#c91847",
      "outputModuleId": 6,
      "outputId": 0,
      "inputModuleId": 3,
      "inputId": 3
    },
    {
      "color": "#0c8e15",
      "outputModuleId": 9,
      "outputId": 0,
      "inputModuleId": 7,
      "inputId": 0
    },
    {
      "color": "#0986ad",
      "outputModuleId": 9,
      "outputId": 0,
      "inputModuleId": 8,
      "inputId": 0
    }
  ]
}