{
  "version": "0.6.1",
  "oversampleFactor": 1.0,
  "oversampleQuality": 7.0,
  "oversampleNumIn": 0.0,
  "oversampleNumOut": 2.0,
  "idleDetect": 1.0,
  "modules": [
    {
      "plugin": "Core",
      "version": "0.6.1",
      "vst2_unique_param_base_id": 1,
      "model": "AudioInterface",
      "pos": [
        64,
        0
      ],
      "params": [],
      "data": {
        "audio": {
          "driver": 0,
          "deviceName": "",
          "offset": 0,
          "maxChannels": 8,
          "sampleRate": 44100,
          "blockSize": 256
        }
      }
    },
    {
      "plugin": "Core",
      "version": "0.6.1",
      "vst2_unique_param_base_id": 2,
      "model": "MIDIToCVInterface",
      "pos": [
        0,
        0
      ],
      "params": [],
      "data": {
        "divisions": [
          24,
          6
        ],
        "midi": {
          "driver": -17545,
          "deviceName": "VST MIDI Input Device",
          "channel": -1
        }
      }
    },
    {
      "plugin": "Fundamental",
      "version": "0.6.2",
      "vst2_unique_param_base_id": 25,
      "model": "VCA",
      "pos": [
        48,
        0
      ],
      "params": [
        {
          "paramId": 0,
          "value": 0.5
        },
        {
          "paramId": 1,
          "value": 1.0
        }
      ]
    },
    {
      "plugin": "Fundamental",
      "version": "0.6.2",
      "vst2_unique_param_base_id": 28,
      "model": "VCF",
      "pos": [
        32,
        0
      ],
      "params": [
        {
          "paramId": 0,
          "value": 0.703000307
        },
        {
          "paramId": 1,
          "value": 0.5
        },
        {
          "paramId": 2,
          "value": 0.254999965
        },
        {
          "paramId": 3,
          "value": 1.0
        },
        {
          "paramId": 4,
          "value": 0.348000139
        }
      ]
    },
    {
      "plugin": "AS",
      "version": "0.6.13",
      "vst2_unique_param_base_id": 34,
      "model": "ADSR",
      "pos": [
        40,
        0
      ],
      "params": [
        {
          "paramId": 0,
          "value": 0.0
        },
        {
          "paramId": 1,
          "value": 0.84199965
        },
        {
          "paramId": 2,
          "value": 0.5
        },
        {
          "paramId": 3,
          "value": 1.0
        }
      ]
    },
    {
      "plugin": "AS",
      "version": "0.6.13",
      "vst2_unique_param_base_id": 39,
      "model": "ADSR",
      "pos": [
        56,
        0
      ],
      "params": [
        {
          "paramId": 0,
          "value": 0.00600000005
        },
        {
          "paramId": 1,
          "value": 0.728999972
        },
        {
          "paramId": 2,
          "value": 0.680999935
        },
        {
          "paramId": 3,
          "value": 0.755000174
        }
      ]
    },
    {
      "plugin": "Valley",
      "version": "0.6.16",
      "vst2_unique_param_base_id": 56,
      "model": "Dexter",
      "pos": [
        0,
        1
      ],
      "params": [
        {
          "paramId": 3,
          "value": 2.0
        },
        {
          "paramId": 4,
          "value": 0.00899994373
        },
        {
          "paramId": 5,
          "value": 0.0
        },
        {
          "paramId": 0,
          "value": 0.0
        },
        {
          "paramId": 1,
          "value": 10.0
        },
        {
          "paramId": 2,
          "value": 0.0
        },
        {
          "paramId": 6,
          "value": 3.0
        },
        {
          "paramId": 7,
          "value": 0.0
        },
        {
          "paramId": 8,
          "value": 0.0
        },
        {
          "paramId": 9,
          "value": 6.0
        },
        {
          "paramId": 10,
          "value": -0.23900032
        },
        {
          "paramId": 11,
          "value": 0.0
        },
        {
          "paramId": 12,
          "value": 0.0
        },
        {
          "paramId": 13,
          "value": 0.0
        },
        {
          "paramId": 14,
          "value": 0.0
        },
        {
          "paramId": 15,
          "value": 0.0
        },
        {
          "paramId": 16,
          "value": 0.0
        },
        {
          "paramId": 17,
          "value": 0.0
        },
        {
          "paramId": 18,
          "value": 0.0
        },
        {
          "paramId": 19,
          "value": 1.0
        },
        {
          "paramId": 22,
          "value": 0.0
        },
        {
          "paramId": 23,
          "value": 0.0
        },
        {
          "paramId": 140,
          "value": 0.0
        },
        {
          "paramId": 24,
          "value": 5.0
        },
        {
          "paramId": 25,
          "value": 0.0
        },
        {
          "paramId": 26,
          "value": 0.0
        },
        {
          "paramId": 27,
          "value": 0.0
        },
        {
          "paramId": 28,
          "value": 0.0
        },
        {
          "paramId": 29,
          "value": 0.513000071
        },
        {
          "paramId": 40,
          "value": 0.0
        },
        {
          "paramId": 30,
          "value": 0.0
        },
        {
          "paramId": 31,
          "value": 0.0
        },
        {
          "paramId": 33,
          "value": 0.0
        },
        {
          "paramId": 32,
          "value": 0.0
        },
        {
          "paramId": 34,
          "value": 0.0
        },
        {
          "paramId": 35,
          "value": 0.0
        },
        {
          "paramId": 36,
          "value": 0.0
        },
        {
          "paramId": 37,
          "value": 0.0
        },
        {
          "paramId": 39,
          "value": 2.0
        },
        {
          "paramId": 92,
          "value": 0.0
        },
        {
          "paramId": 93,
          "value": 0.0
        },
        {
          "paramId": 94,
          "value": 0.0
        },
        {
          "paramId": 95,
          "value": 0.0
        },
        {
          "paramId": 96,
          "value": 0.0
        },
        {
          "paramId": 97,
          "value": 0.0
        },
        {
          "paramId": 98,
          "value": 0.0
        },
        {
          "paramId": 99,
          "value": 0.0
        },
        {
          "paramId": 100,
          "value": 0.0180001259
        },
        {
          "paramId": 101,
          "value": 0.0
        },
        {
          "paramId": 102,
          "value": 0.0
        },
        {
          "paramId": 103,
          "value": 0.0
        },
        {
          "paramId": 41,
          "value": 9.0
        },
        {
          "paramId": 42,
          "value": 0.462999821
        },
        {
          "paramId": 43,
          "value": -0.0342500508
        },
        {
          "paramId": 44,
          "value": 0.0550000034
        },
        {
          "paramId": 45,
          "value": 0.0
        },
        {
          "paramId": 46,
          "value": 0.0
        },
        {
          "paramId": 57,
          "value": 0.0
        },
        {
          "paramId": 47,
          "value": 0.0
        },
        {
          "paramId": 48,
          "value": 0.0
        },
        {
          "paramId": 50,
          "value": 0.0
        },
        {
          "paramId": 49,
          "value": 0.0
        },
        {
          "paramId": 51,
          "value": 0.0
        },
        {
          "paramId": 52,
          "value": 0.0
        },
        {
          "paramId": 53,
          "value": 0.0
        },
        {
          "paramId": 54,
          "value": 0.0
        },
        {
          "paramId": 56,
          "value": 2.0
        },
        {
          "paramId": 104,
          "value": 0.0
        },
        {
          "paramId": 105,
          "value": 1.0
        },
        {
          "paramId": 106,
          "value": 0.0
        },
        {
          "paramId": 107,
          "value": 0.0
        },
        {
          "paramId": 108,
          "value": 0.0
        },
        {
          "paramId": 109,
          "value": 0.0
        },
        {
          "paramId": 110,
          "value": 0.0
        },
        {
          "paramId": 111,
          "value": 0.0
        },
        {
          "paramId": 112,
          "value": 0.0240000486
        },
        {
          "paramId": 113,
          "value": 0.0
        },
        {
          "paramId": 114,
          "value": 0.0
        },
        {
          "paramId": 115,
          "value": 1.0
        },
        {
          "paramId": 58,
          "value": 10.0
        },
        {
          "paramId": 59,
          "value": -0.000999927521
        },
        {
          "paramId": 60,
          "value": 0.0
        },
        {
          "paramId": 61,
          "value": 0.905999899
        },
        {
          "paramId": 62,
          "value": 0.0
        },
        {
          "paramId": 63,
          "value": 0.0
        },
        {
          "paramId": 74,
          "value": 0.0
        },
        {
          "paramId": 64,
          "value": 0.0
        },
        {
          "paramId": 65,
          "value": 0.0
        },
        {
          "paramId": 67,
          "value": 0.0
        },
        {
          "paramId": 66,
          "value": 0.0
        },
        {
          "paramId": 68,
          "value": 0.0
        },
        {
          "paramId": 69,
          "value": 0.0
        },
        {
          "paramId": 70,
          "value": 0.0
        },
        {
          "paramId": 71,
          "value": 0.0
        },
        {
          "paramId": 73,
          "value": 0.0
        },
        {
          "paramId": 116,
          "value": 0.0
        },
        {
          "paramId": 117,
          "value": 0.0
        },
        {
          "paramId": 118,
          "value": 0.0
        },
        {
          "paramId": 119,
          "value": 0.0
        },
        {
          "paramId": 120,
          "value": 0.0
        },
        {
          "paramId": 121,
          "value": 0.0
        },
        {
          "paramId": 122,
          "value": 0.0
        },
        {
          "paramId": 123,
          "value": 0.0
        },
        {
          "paramId": 124,
          "value": 0.152999997
        },
        {
          "paramId": 125,
          "value": 0.0
        },
        {
          "paramId": 126,
          "value": 0.0
        },
        {
          "paramId": 127,
          "value": 0.342999935
        },
        {
          "paramId": 75,
          "value": 5.0
        },
        {
          "paramId": 76,
          "value": -0.00500023365
        },
        {
          "paramId": 77,
          "value": 0.010499984
        },
        {
          "paramId": 78,
          "value": 0.0504997969
        },
        {
          "paramId": 79,
          "value": 0.0
        },
        {
          "paramId": 80,
          "value": 0.0
        },
        {
          "paramId": 91,
          "value": 0.0
        },
        {
          "paramId": 81,
          "value": 0.0
        },
        {
          "paramId": 82,
          "value": 0.0
        },
        {
          "paramId": 84,
          "value": 0.0
        },
        {
          "paramId": 83,
          "value": 0.0
        },
        {
          "paramId": 85,
          "value": 0.0
        },
        {
          "paramId": 86,
          "value": 0.0
        },
        {
          "paramId": 87,
          "value": 0.0
        },
        {
          "paramId": 88,
          "value": 0.0
        },
        {
          "paramId": 90,
          "value": 0.0
        },
        {
          "paramId": 128,
          "value": 0.0
        },
        {
          "paramId": 129,
          "value": 0.0
        },
        {
          "paramId": 130,
          "value": 0.0
        },
        {
          "paramId": 131,
          "value": 0.0
        },
        {
          "paramId": 132,
          "value": 0.0
        },
        {
          "paramId": 133,
          "value": 0.0
        },
        {
          "paramId": 134,
          "value": 0.0
        },
        {
          "paramId": 135,
          "value": 0.0
        },
        {
          "paramId": 136,
          "value": 0.00300002098
        },
        {
          "paramId": 137,
          "value": 0.0
        },
        {
          "paramId": 138,
          "value": 0.0
        },
        {
          "paramId": 139,
          "value": 0.22300005
        }
      ],
      "data": {
        "op1syncEnable": 1,
        "op1weakSyncEnable": 0,
        "op1PostShape": 0,
        "op1PreFade": 0,
        "op1LFO": 0,
        "op1syncMode": 0,
        "op1shapeMode": 0,
        "op1Mod1Dest": 0,
        "op1Mod2Dest": 0,
        "op1Mod3Dest": 0,
        "op1Mod4Dest": 0,
        "op2syncEnable": 1,
        "op2weakSyncEnable": 0,
        "op2PostShape": 0,
        "op2PreFade": 0,
        "op2LFO": 0,
        "op2syncMode": 0,
        "op2shapeMode": 0,
        "op2Mod1Dest": 0,
        "op2Mod2Dest": 7,
        "op2Mod3Dest": 0,
        "op2Mod4Dest": 0,
        "op3syncEnable": 1,
        "op3weakSyncEnable": 0,
        "op3PostShape": 0,
        "op3PreFade": 0,
        "op3LFO": 0,
        "op3syncMode": 0,
        "op3shapeMode": 0,
        "op3Mod1Dest": 0,
        "op3Mod2Dest": 0,
        "op3Mod3Dest": 0,
        "op3Mod4Dest": 0,
        "op4syncEnable": 1,
        "op4weakSyncEnable": 0,
        "op4PostShape": 0,
        "op4PreFade": 0,
        "op4LFO": 0,
        "op4syncMode": 0,
        "op4shapeMode": 0,
        "op4Mod1Dest": 0,
        "op4Mod2Dest": 0,
        "op4Mod3Dest": 0,
        "op4Mod4Dest": 0,
        "panelStyle": 0,
        "opSyncSource": 0,
        "masterLFO": 0,
        "fullInversion": 0,
        "indivOutputSource": 0
      }
    },
    {
      "plugin": "Fundamental",
      "version": "0.6.2",
      "vst2_unique_param_base_id": 203,
      "model": "ADSR",
      "pos": [
        52,
        1
      ],
      "params": [
        {
          "paramId": 0,
          "value": 0.0
        },
        {
          "paramId": 1,
          "value": 0.664000094
        },
        {
          "paramId": 2,
          "value": 0.475499988
        },
        {
          "paramId": 3,
          "value": 0.899499714
        }
      ]
    },
    {
      "plugin": "Fundamental",
      "version": "0.6.2",
      "vst2_unique_param_base_id": 208,
      "model": "ADSR",
      "pos": [
        62,
        1
      ],
      "params": [
        {
          "paramId": 0,
          "value": 0.0
        },
        {
          "paramId": 1,
          "value": 0.792999923
        },
        {
          "paramId": 2,
          "value": 0.475499988
        },
        {
          "paramId": 3,
          "value": 0.944499791
        }
      ]
    },
    {
      "plugin": "Bidoo",
      "version": "0.6.27",
      "vst2_unique_param_base_id": 213,
      "model": "Σ",
      "pos": [
        27,
        0
      ],
      "params": []
    },
    {
      "plugin": "AS",
      "version": "0.6.13",
      "vst2_unique_param_base_id": 214,
      "model": "AtNuVrTr",
      "pos": [
        47,
        1
      ],
      "params": [
        {
          "paramId": 0,
          "value": 0.312999964
        },
        {
          "paramId": 1,
          "value": 0.0
        },
        {
          "paramId": 2,
          "value": 0.591999888
        },
        {
          "paramId": 3,
          "value": -10.0
        }
      ]
    },
    {
      "plugin": "AS",
      "version": "0.6.13",
      "vst2_unique_param_base_id": 219,
      "model": "TriLFO",
      "pos": [
        0,
        2
      ],
      "params": [
        {
          "paramId": 2,
          "value": 2.61199951
        },
        {
          "paramId": 0,
          "value": 0.0
        },
        {
          "paramId": 1,
          "value": 1.0
        },
        {
          "paramId": 5,
          "value": -1.0
        },
        {
          "paramId": 3,
          "value": 1.0
        },
        {
          "paramId": 4,
          "value": 1.0
        },
        {
          "paramId": 8,
          "value": -1.0
        },
        {
          "paramId": 6,
          "value": 0.0
        },
        {
          "paramId": 7,
          "value": 1.0
        }
      ]
    },
    {
      "plugin": "Fundamental",
      "version": "0.6.2",
      "vst2_unique_param_base_id": 233,
      "model": "ADSR",
      "pos": [
        42,
        2
      ],
      "params": [
        {
          "paramId": 0,
          "value": 0.0
        },
        {
          "paramId": 1,
          "value": 0.749500215
        },
        {
          "paramId": 2,
          "value": 0.475499988
        },
        {
          "paramId": 3,
          "value": 0.806500137
        }
      ]
    },
    {
      "plugin": "AS",
      "version": "0.6.13",
      "vst2_unique_param_base_id": 238,
      "model": "AtNuVrTr",
      "pos": [
        10,
        2
      ],
      "params": [
        {
          "paramId": 0,
          "value": 0.462999821
        },
        {
          "paramId": 1,
          "value": 0.0
        },
        {
          "paramId": 2,
          "value": 0.873999357
        },
        {
          "paramId": 3,
          "value": 0.0
        }
      ]
    },
    {
      "plugin": "AS",
      "version": "0.6.13",
      "vst2_unique_param_base_id": 243,
      "model": "AtNuVrTr",
      "pos": [
        19,
        2
      ],
      "params": [
        {
          "paramId": 0,
          "value": 0.83100009
        },
        {
          "paramId": 1,
          "value": 0.239999771
        },
        {
          "paramId": 2,
          "value": 0.430000305
        },
        {
          "paramId": 3,
          "value": -0.109999657
        }
      ]
    },
    {
      "plugin": "Bidoo",
      "version": "0.6.27",
      "vst2_unique_param_base_id": 247,
      "model": "Σ",
      "pos": [
        26,
        2
      ],
      "params": []
    },
    {
      "plugin": "Core",
      "version": "0.6.1",
      "vst2_unique_param_base_id": 248,
      "model": "MIDICCToCVInterface",
      "pos": [
        9,
        0
      ],
      "params": [],
      "data": {
        "ccs": [
          0,
          1,
          2,
          3,
          4,
          5,
          6,
          7,
          8,
          9,
          10,
          11,
          12,
          13,
          14,
          15
        ],
        "midi": {
          "driver": -17545,
          "deviceName": "VST MIDI Input Device",
          "channel": -1
        }
      }
    },
    {
      "plugin": "AS",
      "version": "0.6.13",
      "vst2_unique_param_base_id": 250,
      "model": "AtNuVrTr",
      "pos": [
        22,
        0
      ],
      "params": [
        {
          "paramId": 0,
          "value": 0.147999644
        },
        {
          "paramId": 1,
          "value": 0.0
        },
        {
          "paramId": 2,
          "value": 0.660000086
        },
        {
          "paramId": 3,
          "value": -3.84000015
        }
      ]
    },
    {
      "plugin": "Bogaudio",
      "version": "0.6.13",
      "vst2_unique_param_base_id": 254,
      "model": "Bogaudio-VCAmp",
      "pos": [
        53,
        0
      ],
      "params": [
        {
          "paramId": 0,
          "value": 1.0
        }
      ]
    }
  ],
  "wires": [
    {
      "color": "#c9b70e",
      "outputModuleId": 1,
      "outputId": 1,
      "inputModuleId": 4,
      "inputId": 4
    },
    {
      "color": "#c91847",
      "outputModuleId": 1,
      "outputId": 1,
      "inputModuleId": 5,
      "inputId": 4
    },
    {
      "color": "#c91847",
      "outputModuleId": 3,
      "outputId": 0,
      "inputModuleId": 2,
      "inputId": 5
    },
    {
      "color": "#0c8e15",
      "outputModuleId": 4,
      "outputId": 0,
      "inputModuleId": 17,
      "inputId": 4
    },
    {
      "color": "#0986ad",
      "outputModuleId": 5,
      "outputId": 0,
      "inputModuleId": 2,
      "inputId": 3
    },
    {
      "color": "#c9b70e",
      "outputModuleId": 2,
      "outputId": 1,
      "inputModuleId": 18,
      "inputId": 1
    },
    {
      "color": "#c91847",
      "outputModuleId": 1,
      "outputId": 0,
      "inputModuleId": 6,
      "inputId": 7
    },
    {
      "color": "#0c8e15",
      "outputModuleId": 6,
      "outputId": 0,
      "inputModuleId": 3,
      "inputId": 3
    },
    {
      "color": "#c91847",
      "outputModuleId": 1,
      "outputId": 1,
      "inputModuleId": 7,
      "inputId": 4
    },
    {
      "color": "#0986ad",
      "outputModuleId": 7,
      "outputId": 0,
      "inputModuleId": 10,
      "inputId": 4
    },
    {
      "color": "#c91847",
      "outputModuleId": 1,
      "outputId": 1,
      "inputModuleId": 8,
      "inputId": 4
    },
    {
      "color": "#0c8e15",
      "outputModuleId": 8,
      "outputId": 0,
      "inputModuleId": 6,
      "inputId": 44
    },
    {
      "color": "#0986ad",
      "outputModuleId": 1,
      "outputId": 0,
      "inputModuleId": 9,
      "inputId": 16
    },
    {
      "color": "#c9b70e",
      "outputModuleId": 9,
      "outputId": 5,
      "inputModuleId": 3,
      "inputId": 0
    },
    {
      "color": "#0c8e15",
      "outputModuleId": 10,
      "outputId": 1,
      "inputModuleId": 10,
      "inputId": 0
    },
    {
      "color": "#0986ad",
      "outputModuleId": 10,
      "outputId": 0,
      "inputModuleId": 15,
      "inputId": 1
    },
    {
      "color": "#c9b70e",
      "outputModuleId": 13,
      "outputId": 0,
      "inputModuleId": 6,
      "inputId": 17
    },
    {
      "color": "#c91847",
      "outputModuleId": 13,
      "outputId": 0,
      "inputModuleId": 6,
      "inputId": 29
    },
    {
      "color": "#c9b70e",
      "outputModuleId": 6,
      "outputId": 5,
      "inputModuleId": 6,
      "inputId": 22
    },
    {
      "color": "#c91847",
      "outputModuleId": 1,
      "outputId": 1,
      "inputModuleId": 12,
      "inputId": 4
    },
    {
      "color": "#0c8e15",
      "outputModuleId": 12,
      "outputId": 0,
      "inputModuleId": 6,
      "inputId": 56
    },
    {
      "color": "#0986ad",
      "outputModuleId": 11,
      "outputId": 1,
      "inputModuleId": 13,
      "inputId": 4
    },
    {
      "color": "#c9b70e",
      "outputModuleId": 11,
      "outputId": 9,
      "inputModuleId": 13,
      "inputId": 5
    },
    {
      "color": "#c91847",
      "outputModuleId": 13,
      "outputId": 1,
      "inputModuleId": 6,
      "inputId": 41
    },
    {
      "color": "#0c8e15",
      "outputModuleId": 13,
      "outputId": 1,
      "inputModuleId": 6,
      "inputId": 53
    },
    {
      "color": "#0986ad",
      "outputModuleId": 1,
      "outputId": 5,
      "inputModuleId": 14,
      "inputId": 4
    },
    {
      "color": "#c9b70e",
      "outputModuleId": 14,
      "outputId": 0,
      "inputModuleId": 6,
      "inputId": 6
    },
    {
      "color": "#0c8e15",
      "outputModuleId": 14,
      "outputId": 1,
      "inputModuleId": 15,
      "inputId": 2
    },
    {
      "color": "#0986ad",
      "outputModuleId": 15,
      "outputId": 0,
      "inputModuleId": 6,
      "inputId": 32
    },
    {
      "color": "#c9b70e",
      "outputModuleId": 16,
      "outputId": 2,
      "inputModuleId": 14,
      "inputId": 5
    },
    {
      "color": "#0986ad",
      "outputModuleId": 16,
      "outputId": 3,
      "inputModuleId": 17,
      "inputId": 5
    },
    {
      "color": "#c9b70e",
      "outputModuleId": 17,
      "outputId": 1,
      "inputModuleId": 9,
      "inputId": 17
    },
    {
      "color": "#c91847",
      "outputModuleId": 17,
      "outputId": 0,
      "inputModuleId": 9,
      "inputId": 15
    },
    {
      "color": "#0c8e15",
      "outputModuleId": 16,
      "outputId": 4,
      "inputModuleId": 17,
      "inputId": 0
    },
    {
      "color": "#c9b70e",
      "outputModuleId": 1,
      "outputId": 3,
      "inputModuleId": 10,
      "inputId": 5
    },
    {
      "color": "#0c8e15",
      "outputModuleId": 18,
      "outputId": 0,
      "inputModuleId": 0,
      "inputId": 0
    },
    {
      "color": "#0986ad",
      "outputModuleId": 18,
      "outputId": 0,
      "inputModuleId": 0,
      "inputId": 1
    }
  ]
}