{
  "version": "0.6.1",
  "oversampleFactor": 1.0,
  "oversampleQuality": 7.0,
  "oversampleNumIn": 8.0,
  "oversampleNumOut": 8.0,
  "idleDetect": 1.0,
  "modules": [
    {
      "plugin": "Core",
      "version": "0.6.1",
      "vst2_unique_param_base_id": 1,
      "model": "AudioInterface",
      "pos": [
        70,
        0
      ],
      "params": [],
      "data": {
        "audio": {
          "driver": 0,
          "deviceName": "",
          "offset": 0,
          "maxChannels": 8,
          "sampleRate": 44100,
          "blockSize": 256
        }
      }
    },
    {
      "plugin": "Core",
      "version": "0.6.1",
      "vst2_unique_param_base_id": 2,
      "model": "MIDIToCVInterface",
      "pos": [
        0,
        0
      ],
      "params": [],
      "data": {
        "divisions": [
          24,
          6
        ],
        "midi": {
          "driver": -17545,
          "deviceName": "VST MIDI Input Device",
          "channel": -1
        }
      }
    },
    {
      "plugin": "Bogaudio",
      "version": "0.6.13",
      "vst2_unique_param_base_id": 7,
      "model": "Bogaudio-XCO",
      "pos": [
        8,
        0
      ],
      "params": [
        {
          "paramId": 0,
          "value": -1.0
        },
        {
          "paramId": 1,
          "value": 0.192000031
        },
        {
          "paramId": 2,
          "value": 0.0
        },
        {
          "paramId": 3,
          "value": 1.0
        },
        {
          "paramId": 4,
          "value": 1.0
        },
        {
          "paramId": 5,
          "value": -0.970000029
        },
        {
          "paramId": 6,
          "value": 0.0
        },
        {
          "paramId": 7,
          "value": 0.0
        },
        {
          "paramId": 8,
          "value": 0.0
        },
        {
          "paramId": 9,
          "value": 0.0
        },
        {
          "paramId": 10,
          "value": 0.0
        },
        {
          "paramId": 11,
          "value": 0.817499876
        },
        {
          "paramId": 12,
          "value": 0.0
        },
        {
          "paramId": 13,
          "value": 0.0734999776
        },
        {
          "paramId": 14,
          "value": 0.0
        },
        {
          "paramId": 15,
          "value": 0.0
        },
        {
          "paramId": 16,
          "value": 0.0
        }
      ]
    },
    {
      "plugin": "Fundamental",
      "version": "0.6.2",
      "vst2_unique_param_base_id": 25,
      "model": "VCA",
      "pos": [
        53,
        0
      ],
      "params": [
        {
          "paramId": 0,
          "value": 0.5
        },
        {
          "paramId": 1,
          "value": 0.921499848
        }
      ]
    },
    {
      "plugin": "AS",
      "version": "0.6.13",
      "vst2_unique_param_base_id": 34,
      "model": "ADSR",
      "pos": [
        45,
        0
      ],
      "params": [
        {
          "paramId": 0,
          "value": 0.525000215
        },
        {
          "paramId": 1,
          "value": 0.748999655
        },
        {
          "paramId": 2,
          "value": 0.830000222
        },
        {
          "paramId": 3,
          "value": 1.0
        }
      ]
    },
    {
      "plugin": "AS",
      "version": "0.6.13",
      "vst2_unique_param_base_id": 39,
      "model": "ADSR",
      "pos": [
        60,
        0
      ],
      "params": [
        {
          "paramId": 0,
          "value": 0.11099983
        },
        {
          "paramId": 1,
          "value": 0.887000203
        },
        {
          "paramId": 2,
          "value": 0.713000119
        },
        {
          "paramId": 3,
          "value": 0.910999954
        }
      ]
    },
    {
      "plugin": "bsp",
      "version": "0.6.1",
      "vst2_unique_param_base_id": 46,
      "model": "Obxd_VCF",
      "pos": [
        37,
        0
      ],
      "params": [
        {
          "paramId": 5,
          "value": 0.0
        },
        {
          "paramId": 0,
          "value": 0.463000655
        },
        {
          "paramId": 1,
          "value": 0.0
        },
        {
          "paramId": 2,
          "value": 0.0
        },
        {
          "paramId": 3,
          "value": 0.0599999428
        },
        {
          "paramId": 4,
          "value": 0.0974998921
        }
      ]
    },
    {
      "plugin": "21kHz",
      "version": "0.6.1",
      "vst2_unique_param_base_id": 53,
      "model": "kHzD_Inf",
      "pos": [
        0,
        1
      ],
      "params": [
        {
          "paramId": 0,
          "value": 1.0
        },
        {
          "paramId": 1,
          "value": 0.0
        },
        {
          "paramId": 2,
          "value": 0.0
        },
        {
          "paramId": 3,
          "value": 0.0
        },
        {
          "paramId": 4,
          "value": 0.0
        },
        {
          "paramId": 5,
          "value": 0.0
        }
      ]
    },
    {
      "plugin": "Autodafe",
      "version": "0.6.1",
      "vst2_unique_param_base_id": 66,
      "model": "Multiple 1x8",
      "pos": [
        7,
        1
      ],
      "params": []
    },
    {
      "plugin": "Autodafe",
      "version": "0.6.1",
      "vst2_unique_param_base_id": 67,
      "model": "Multiple 1x8",
      "pos": [
        10,
        1
      ],
      "params": []
    },
    {
      "plugin": "bsp",
      "version": "0.6.1",
      "vst2_unique_param_base_id": 67,
      "model": "AttenuMixer",
      "pos": [
        4,
        1
      ],
      "params": [
        {
          "paramId": 8,
          "value": 0.0
        },
        {
          "paramId": 9,
          "value": 0.0
        },
        {
          "paramId": 0,
          "value": 1.0
        },
        {
          "paramId": 1,
          "value": 0.0
        },
        {
          "paramId": 2,
          "value": 0.41050005
        },
        {
          "paramId": 3,
          "value": 0.0
        },
        {
          "paramId": 4,
          "value": 0.5
        },
        {
          "paramId": 5,
          "value": 0.0
        },
        {
          "paramId": 6,
          "value": 0.25
        },
        {
          "paramId": 7,
          "value": 0.0
        }
      ]
    },
    {
      "plugin": "bsp",
      "version": "0.6.1",
      "vst2_unique_param_base_id": 77,
      "model": "TunedDelayLine",
      "pos": [
        44,
        1
      ],
      "params": [
        {
          "paramId": 2,
          "value": -0.170999825
        },
        {
          "paramId": 1,
          "value": 1.0
        },
        {
          "paramId": 3,
          "value": 1.0
        },
        {
          "paramId": 0,
          "value": 0.15700002
        }
      ]
    },
    {
      "plugin": "21kHz",
      "version": "0.6.1",
      "vst2_unique_param_base_id": 82,
      "model": "kHzD_Inf",
      "pos": [
        32,
        1
      ],
      "params": [
        {
          "paramId": 0,
          "value": -1.0
        },
        {
          "paramId": 1,
          "value": -0.0
        },
        {
          "paramId": 2,
          "value": 0.0
        },
        {
          "paramId": 3,
          "value": 0.0
        },
        {
          "paramId": 4,
          "value": 0.0
        },
        {
          "paramId": 5,
          "value": 0.0
        }
      ]
    },
    {
      "plugin": "bsp",
      "version": "0.6.1",
      "vst2_unique_param_base_id": 103,
      "model": "AttenuMixer",
      "pos": [
        47,
        1
      ],
      "params": [
        {
          "paramId": 8,
          "value": 0.0
        },
        {
          "paramId": 9,
          "value": 0.0
        },
        {
          "paramId": 0,
          "value": 0.890500724
        },
        {
          "paramId": 1,
          "value": 0.0
        },
        {
          "paramId": 2,
          "value": 0.0
        },
        {
          "paramId": 3,
          "value": 0.0
        },
        {
          "paramId": 4,
          "value": 0.0
        },
        {
          "paramId": 5,
          "value": 0.0
        },
        {
          "paramId": 6,
          "value": 0.0
        },
        {
          "paramId": 7,
          "value": 0.0
        }
      ]
    },
    {
      "plugin": "bsp",
      "version": "0.6.1",
      "vst2_unique_param_base_id": 113,
      "model": "Obxd_VCF",
      "pos": [
        29,
        0
      ],
      "params": [
        {
          "paramId": 5,
          "value": 0.0
        },
        {
          "paramId": 0,
          "value": 0.304000616
        },
        {
          "paramId": 1,
          "value": 1.0
        },
        {
          "paramId": 2,
          "value": 0.0
        },
        {
          "paramId": 3,
          "value": 0.0599999428
        },
        {
          "paramId": 4,
          "value": 0.0
        }
      ]
    },
    {
      "plugin": "bsp",
      "version": "0.6.1",
      "vst2_unique_param_base_id": 120,
      "model": "Sway",
      "pos": [
        13,
        1
      ],
      "params": [
        {
          "paramId": 0,
          "value": 0.609500468
        },
        {
          "paramId": 1,
          "value": 0.630000293
        },
        {
          "paramId": 2,
          "value": -1.0
        },
        {
          "paramId": 3,
          "value": 1.0
        },
        {
          "paramId": 4,
          "value": 0.398499817
        },
        {
          "paramId": 5,
          "value": 0.0
        }
      ]
    },
    {
      "plugin": "bsp",
      "version": "0.6.1",
      "vst2_unique_param_base_id": 127,
      "model": "Sway",
      "pos": [
        16,
        1
      ],
      "params": [
        {
          "paramId": 0,
          "value": 0.168500245
        },
        {
          "paramId": 1,
          "value": 0.217500404
        },
        {
          "paramId": 2,
          "value": -1.0
        },
        {
          "paramId": 3,
          "value": 1.0
        },
        {
          "paramId": 4,
          "value": 0.23649931
        },
        {
          "paramId": 5,
          "value": 0.0
        }
      ]
    },
    {
      "plugin": "bsp",
      "version": "0.6.1",
      "vst2_unique_param_base_id": 134,
      "model": "Obxd_VCF",
      "pos": [
        36,
        1
      ],
      "params": [
        {
          "paramId": 5,
          "value": 0.0
        },
        {
          "paramId": 0,
          "value": 0.0410006046
        },
        {
          "paramId": 1,
          "value": 1.0
        },
        {
          "paramId": 2,
          "value": 0.0700000897
        },
        {
          "paramId": 3,
          "value": 1.0
        },
        {
          "paramId": 4,
          "value": 0.318000078
        }
      ]
    },
    {
      "plugin": "Fundamental",
      "version": "0.6.2",
      "vst2_unique_param_base_id": 141,
      "model": "VCA",
      "pos": [
        19,
        1
      ],
      "params": [
        {
          "paramId": 0,
          "value": 0.5
        },
        {
          "paramId": 1,
          "value": 1.0
        }
      ]
    },
    {
      "plugin": "AS",
      "version": "0.6.13",
      "vst2_unique_param_base_id": 144,
      "model": "ADSR",
      "pos": [
        24,
        1
      ],
      "params": [
        {
          "paramId": 0,
          "value": 0.122999944
        },
        {
          "paramId": 1,
          "value": 0.39800027
        },
        {
          "paramId": 2,
          "value": 0.0840000883
        },
        {
          "paramId": 3,
          "value": 0.571999967
        }
      ]
    },
    {
      "plugin": "AS",
      "version": "0.6.13",
      "vst2_unique_param_base_id": 149,
      "model": "TriLFO",
      "pos": [
        58,
        1
      ],
      "params": [
        {
          "paramId": 2,
          "value": -2.61699963
        },
        {
          "paramId": 0,
          "value": 0.0
        },
        {
          "paramId": 1,
          "value": 1.0
        },
        {
          "paramId": 5,
          "value": -1.0
        },
        {
          "paramId": 3,
          "value": 1.0
        },
        {
          "paramId": 4,
          "value": 1.0
        },
        {
          "paramId": 8,
          "value": -1.0
        },
        {
          "paramId": 6,
          "value": 1.0
        },
        {
          "paramId": 7,
          "value": 1.0
        }
      ]
    },
    {
      "plugin": "Bidoo",
      "version": "0.6.27",
      "vst2_unique_param_base_id": 163,
      "model": "lIMbO",
      "pos": [
        50,
        1
      ],
      "params": [
        {
          "paramId": 0,
          "value": 0.986499906
        },
        {
          "paramId": 1,
          "value": 0.0
        },
        {
          "paramId": 3,
          "value": 0.0
        },
        {
          "paramId": 2,
          "value": 0.0
        },
        {
          "paramId": 4,
          "value": 0.0
        }
      ]
    },
    {
      "plugin": "AudibleInstruments",
      "version": "0.6.3",
      "vst2_unique_param_base_id": 169,
      "model": "Clouds",
      "pos": [
        81,
        0
      ],
      "params": [
        {
          "paramId": 3,
          "value": 0.5
        },
        {
          "paramId": 4,
          "value": 0.590500176
        },
        {
          "paramId": 5,
          "value": 0.0
        },
        {
          "paramId": 6,
          "value": 0.688000083
        },
        {
          "paramId": 7,
          "value": 0.711499631
        },
        {
          "paramId": 8,
          "value": 0.819499731
        },
        {
          "paramId": 9,
          "value": 0.158499658
        },
        {
          "paramId": 10,
          "value": 0.593999803
        },
        {
          "paramId": 11,
          "value": 0.390000075
        },
        {
          "paramId": 12,
          "value": 0.871499956
        },
        {
          "paramId": 0,
          "value": 0.0
        },
        {
          "paramId": 1,
          "value": 0.0
        },
        {
          "paramId": 2,
          "value": 0.0
        }
      ],
      "data": {
        "playback": 0,
        "quality": 0,
        "blendMode": 0
      }
    },
    {
      "plugin": "Fundamental",
      "version": "0.6.2",
      "vst2_unique_param_base_id": 183,
      "model": "Delay",
      "pos": [
        68,
        1
      ],
      "params": [
        {
          "paramId": 0,
          "value": 0.702500761
        },
        {
          "paramId": 1,
          "value": 0.648500144
        },
        {
          "paramId": 2,
          "value": 0.5
        },
        {
          "paramId": 3,
          "value": 0.162499994
        }
      ]
    },
    {
      "plugin": "Fundamental",
      "version": "0.6.2",
      "vst2_unique_param_base_id": 188,
      "model": "Delay",
      "pos": [
        76,
        1
      ],
      "params": [
        {
          "paramId": 0,
          "value": 0.657500207
        },
        {
          "paramId": 1,
          "value": 0.662
        },
        {
          "paramId": 2,
          "value": 0.5
        },
        {
          "paramId": 3,
          "value": 0.162499994
        }
      ]
    }
  ],
  "wires": [
    {
      "color": "#c91847",
      "outputModuleId": 9,
      "outputId": 0,
      "inputModuleId": 4,
      "inputId": 4
    },
    {
      "color": "#0986ad",
      "outputModuleId": 5,
      "outputId": 0,
      "inputModuleId": 3,
      "inputId": 3
    },
    {
      "color": "#c9b70e",
      "outputModuleId": 3,
      "outputId": 1,
      "inputModuleId": 23,
      "inputId": 4
    },
    {
      "color": "#c91847",
      "outputModuleId": 3,
      "outputId": 1,
      "inputModuleId": 24,
      "inputId": 4
    },
    {
      "color": "#c9b70e",
      "outputModuleId": 4,
      "outputId": 0,
      "inputModuleId": 6,
      "inputId": 0
    },
    {
      "color": "#0c8e15",
      "outputModuleId": 1,
      "outputId": 4,
      "inputModuleId": 10,
      "inputId": 1
    },
    {
      "color": "#c9b70e",
      "outputModuleId": 7,
      "outputId": 0,
      "inputModuleId": 10,
      "inputId": 0
    },
    {
      "color": "#c91847",
      "outputModuleId": 1,
      "outputId": 0,
      "inputModuleId": 7,
      "inputId": 1
    },
    {
      "color": "#0986ad",
      "outputModuleId": 1,
      "outputId": 1,
      "inputModuleId": 9,
      "inputId": 0
    },
    {
      "color": "#c9b70e",
      "outputModuleId": 8,
      "outputId": 0,
      "inputModuleId": 2,
      "inputId": 14
    },
    {
      "color": "#c91847",
      "outputModuleId": 10,
      "outputId": 0,
      "inputModuleId": 8,
      "inputId": 0
    },
    {
      "color": "#0c8e15",
      "outputModuleId": 9,
      "outputId": 1,
      "inputModuleId": 5,
      "inputId": 4
    },
    {
      "color": "#0986ad",
      "outputModuleId": 2,
      "outputId": 4,
      "inputModuleId": 18,
      "inputId": 5
    },
    {
      "color": "#c91847",
      "outputModuleId": 8,
      "outputId": 1,
      "inputModuleId": 12,
      "inputId": 1
    },
    {
      "color": "#0986ad",
      "outputModuleId": 12,
      "outputId": 0,
      "inputModuleId": 11,
      "inputId": 0
    },
    {
      "color": "#0c8e15",
      "outputModuleId": 11,
      "outputId": 1,
      "inputModuleId": 14,
      "inputId": 3
    },
    {
      "color": "#0986ad",
      "outputModuleId": 6,
      "outputId": 0,
      "inputModuleId": 3,
      "inputId": 5
    },
    {
      "color": "#c91847",
      "outputModuleId": 14,
      "outputId": 0,
      "inputModuleId": 6,
      "inputId": 3
    },
    {
      "color": "#0c8e15",
      "outputModuleId": 15,
      "outputId": 0,
      "inputModuleId": 10,
      "inputId": 2
    },
    {
      "color": "#0986ad",
      "outputModuleId": 16,
      "outputId": 0,
      "inputModuleId": 2,
      "inputId": 0
    },
    {
      "color": "#c91847",
      "outputModuleId": 13,
      "outputId": 0,
      "inputModuleId": 11,
      "inputId": 1
    },
    {
      "color": "#0c8e15",
      "outputModuleId": 17,
      "outputId": 0,
      "inputModuleId": 13,
      "inputId": 0
    },
    {
      "color": "#0986ad",
      "outputModuleId": 11,
      "outputId": 0,
      "inputModuleId": 21,
      "inputId": 0
    },
    {
      "color": "#c91847",
      "outputModuleId": 19,
      "outputId": 0,
      "inputModuleId": 18,
      "inputId": 4
    },
    {
      "color": "#0c8e15",
      "outputModuleId": 9,
      "outputId": 2,
      "inputModuleId": 19,
      "inputId": 4
    },
    {
      "color": "#0c8e15",
      "outputModuleId": 18,
      "outputId": 1,
      "inputModuleId": 17,
      "inputId": 3
    },
    {
      "color": "#0986ad",
      "outputModuleId": 20,
      "outputId": 1,
      "inputModuleId": 2,
      "inputId": 8
    },
    {
      "color": "#0c8e15",
      "outputModuleId": 21,
      "outputId": 0,
      "inputModuleId": 11,
      "inputId": 2
    },
    {
      "color": "#c91847",
      "outputModuleId": 22,
      "outputId": 0,
      "inputModuleId": 0,
      "inputId": 0
    },
    {
      "color": "#0c8e15",
      "outputModuleId": 22,
      "outputId": 1,
      "inputModuleId": 0,
      "inputId": 1
    },
    {
      "color": "#0986ad",
      "outputModuleId": 23,
      "outputId": 0,
      "inputModuleId": 22,
      "inputId": 6
    },
    {
      "color": "#c9b70e",
      "outputModuleId": 24,
      "outputId": 0,
      "inputModuleId": 22,
      "inputId": 7
    }
  ]
}