{
  "version": "0.6.1",
  "oversampleFactor": 1.0,
  "oversampleQuality": 7.0,
  "oversampleNumIn": 8.0,
  "oversampleNumOut": 8.0,
  "idleDetect": 1.0,
  "modules": [
    {
      "plugin": "Core",
      "version": "0.6.1",
      "vst2_unique_param_base_id": 1,
      "model": "AudioInterface",
      "pos": [
        77,
        0
      ],
      "params": [],
      "data": {
        "audio": {
          "driver": 0,
          "deviceName": "",
          "offset": 0,
          "maxChannels": 8,
          "sampleRate": 44100,
          "blockSize": 256
        }
      }
    },
    {
      "plugin": "Core",
      "version": "0.6.1",
      "vst2_unique_param_base_id": 2,
      "model": "MIDIToCVInterface",
      "pos": [
        0,
        0
      ],
      "params": [],
      "data": {
        "divisions": [
          24,
          6
        ],
        "midi": {
          "driver": -17545,
          "deviceName": "VST MIDI Input Device",
          "channel": -1
        }
      }
    },
    {
      "plugin": "Fundamental",
      "version": "0.6.2",
      "vst2_unique_param_base_id": 25,
      "model": "VCA",
      "pos": [
        63,
        0
      ],
      "params": [
        {
          "paramId": 0,
          "value": 0.5
        },
        {
          "paramId": 1,
          "value": 0.834499836
        }
      ]
    },
    {
      "plugin": "AS",
      "version": "0.6.13",
      "vst2_unique_param_base_id": 34,
      "model": "ADSR",
      "pos": [
        49,
        0
      ],
      "params": [
        {
          "paramId": 0,
          "value": 0.0
        },
        {
          "paramId": 1,
          "value": 0.578000128
        },
        {
          "paramId": 2,
          "value": 0.316999972
        },
        {
          "paramId": 3,
          "value": 0.588999927
        }
      ]
    },
    {
      "plugin": "AS",
      "version": "0.6.13",
      "vst2_unique_param_base_id": 39,
      "model": "ADSR",
      "pos": [
        69,
        0
      ],
      "params": [
        {
          "paramId": 0,
          "value": 0.0900000036
        },
        {
          "paramId": 1,
          "value": 0.5
        },
        {
          "paramId": 2,
          "value": 0.884000182
        },
        {
          "paramId": 3,
          "value": 0.451999962
        }
      ]
    },
    {
      "plugin": "Fundamental",
      "version": "0.6.2",
      "vst2_unique_param_base_id": 108,
      "model": "VCMixer",
      "pos": [
        29,
        0
      ],
      "params": [
        {
          "paramId": 0,
          "value": 1.0
        },
        {
          "paramId": 1,
          "value": 0.770999908
        },
        {
          "paramId": 2,
          "value": 0.708000064
        },
        {
          "paramId": 3,
          "value": 0.690999746
        },
        {
          "paramId": 4,
          "value": 1.0
        }
      ]
    },
    {
      "plugin": "Fundamental",
      "version": "0.6.2",
      "vst2_unique_param_base_id": 114,
      "model": "VCF",
      "pos": [
        39,
        0
      ],
      "params": [
        {
          "paramId": 0,
          "value": 0.346999615
        },
        {
          "paramId": 1,
          "value": 0.5
        },
        {
          "paramId": 2,
          "value": 0.566999793
        },
        {
          "paramId": 3,
          "value": 0.233999893
        },
        {
          "paramId": 4,
          "value": 0.0315000191
        }
      ]
    },
    {
      "plugin": "Bogaudio",
      "version": "0.6.13",
      "vst2_unique_param_base_id": 133,
      "model": "Bogaudio-LFO",
      "pos": [
        13,
        1
      ],
      "params": [
        {
          "paramId": 0,
          "value": -3.62700152
        },
        {
          "paramId": 1,
          "value": 0.0
        },
        {
          "paramId": 2,
          "value": 0.0
        },
        {
          "paramId": 3,
          "value": 0.0
        },
        {
          "paramId": 4,
          "value": 0.0
        },
        {
          "paramId": 5,
          "value": 1.0
        }
      ]
    },
    {
      "plugin": "Bidoo",
      "version": "0.6.27",
      "vst2_unique_param_base_id": 139,
      "model": "ForK",
      "pos": [
        8,
        0
      ],
      "params": [
        {
          "paramId": 1,
          "value": -0.161999524
        },
        {
          "paramId": 2,
          "value": 0.0
        },
        {
          "paramId": 3,
          "value": 190.0
        },
        {
          "paramId": 7,
          "value": 1.0
        },
        {
          "paramId": 4,
          "value": 1700.0
        },
        {
          "paramId": 8,
          "value": 0.699999988
        },
        {
          "paramId": 5,
          "value": 2100.0
        },
        {
          "paramId": 9,
          "value": 0.400000006
        },
        {
          "paramId": 6,
          "value": 3300.0
        },
        {
          "paramId": 10,
          "value": 0.300000012
        }
      ]
    },
    {
      "plugin": "Bidoo",
      "version": "0.6.27",
      "vst2_unique_param_base_id": 151,
      "model": "TiARE",
      "pos": [
        15,
        0
      ],
      "params": [
        {
          "paramId": 4,
          "value": 1.0
        },
        {
          "paramId": 5,
          "value": 1.0
        },
        {
          "paramId": 0,
          "value": 0.0
        },
        {
          "paramId": 1,
          "value": 0.0
        },
        {
          "paramId": 6,
          "value": 0.433499992
        }
      ],
      "data": {
        "phaseDistX": 0.262127072,
        "phaseDistY": 0.5,
        "freqFactor": 1
      }
    },
    {
      "plugin": "LOGinstruments",
      "version": "0.6.1",
      "vst2_unique_param_base_id": 168,
      "model": "Constant",
      "pos": [
        29,
        1
      ],
      "params": [
        {
          "paramId": 0,
          "value": -0.00099999411
        },
        {
          "paramId": 3,
          "value": 0.0
        },
        {
          "paramId": 1,
          "value": 4.55999947
        },
        {
          "paramId": 4,
          "value": 0.0
        },
        {
          "paramId": 2,
          "value": 17.4000034
        },
        {
          "paramId": 5,
          "value": 0.0
        }
      ]
    },
    {
      "plugin": "Fundamental",
      "version": "0.6.2",
      "vst2_unique_param_base_id": 175,
      "model": "VCMixer",
      "pos": [
        37,
        1
      ],
      "params": [
        {
          "paramId": 0,
          "value": 1.0
        },
        {
          "paramId": 1,
          "value": 0.504999757
        },
        {
          "paramId": 2,
          "value": 1.0
        },
        {
          "paramId": 3,
          "value": 1.0
        },
        {
          "paramId": 4,
          "value": 1.0
        }
      ]
    }
  ],
  "wires": [
    {
      "color": "#c9b70e",
      "outputModuleId": 1,
      "outputId": 1,
      "inputModuleId": 3,
      "inputId": 4
    },
    {
      "color": "#c91847",
      "outputModuleId": 1,
      "outputId": 1,
      "inputModuleId": 4,
      "inputId": 4
    },
    {
      "color": "#0986ad",
      "outputModuleId": 4,
      "outputId": 0,
      "inputModuleId": 2,
      "inputId": 3
    },
    {
      "color": "#c9b70e",
      "outputModuleId": 2,
      "outputId": 1,
      "inputModuleId": 0,
      "inputId": 0
    },
    {
      "color": "#c91847",
      "outputModuleId": 2,
      "outputId": 1,
      "inputModuleId": 0,
      "inputId": 1
    },
    {
      "color": "#0986ad",
      "outputModuleId": 5,
      "outputId": 0,
      "inputModuleId": 6,
      "inputId": 3
    },
    {
      "color": "#c9b70e",
      "outputModuleId": 6,
      "outputId": 0,
      "inputModuleId": 2,
      "inputId": 5
    },
    {
      "color": "#c9b70e",
      "outputModuleId": 8,
      "outputId": 0,
      "inputModuleId": 5,
      "inputId": 1
    },
    {
      "color": "#c91847",
      "outputModuleId": 1,
      "outputId": 0,
      "inputModuleId": 8,
      "inputId": 1
    },
    {
      "color": "#0c8e15",
      "outputModuleId": 3,
      "outputId": 0,
      "inputModuleId": 6,
      "inputId": 0
    },
    {
      "color": "#0986ad",
      "outputModuleId": 1,
      "outputId": 0,
      "inputModuleId": 9,
      "inputId": 0
    },
    {
      "color": "#c9b70e",
      "outputModuleId": 9,
      "outputId": 1,
      "inputModuleId": 5,
      "inputId": 2
    },
    {
      "color": "#c91847",
      "outputModuleId": 7,
      "outputId": 3,
      "inputModuleId": 11,
      "inputId": 1
    },
    {
      "color": "#0986ad",
      "outputModuleId": 11,
      "outputId": 0,
      "inputModuleId": 9,
      "inputId": 2
    },
    {
      "color": "#c9b70e",
      "outputModuleId": 10,
      "outputId": 1,
      "inputModuleId": 11,
      "inputId": 2
    },
    {
      "color": "#0c8e15",
      "outputModuleId": 11,
      "outputId": 1,
      "inputModuleId": 11,
      "inputId": 3
    },
    {
      "color": "#0986ad",
      "outputModuleId": 9,
      "outputId": 2,
      "inputModuleId": 5,
      "inputId": 3
    }
  ]
}