{
  "version": "1.dev",
  "modules": [
    {
      "plugin": "Core",
      "version": "1.dev",
      "model": "AudioInterface",
      "params": [],
      "data": {
      },
      "id": 1,
      "pos": [
        47,
        0
      ]
    },
    {
      "plugin": "Fundamental",
      "version": "1.0.0",
      "model": "VCMixer",
      "params": [
        {
          "value": 1.0
        },
        {
          "value": 1.0
        },
        {
          "value": 1.0
        },
        {
          "value": 1.0
        },
        {
          "value": 1.0
        }
      ],
      "id": 2,
      "pos": [
        37,
        0
      ]
    },
    {
      "plugin": "Fundamental",
      "version": "1.0.0",
      "model": "VCO",
      "params": [
        {
          "value": 1.0
        },
        {
          "value": 1.0
        },
        {
          "value": 0.0
        },
        {
          "value": 0.0
        },
        {
          "value": 0.0
        },
        {
          "value": 0.5
        },
        {
          "value": 0.0
        }
      ],
      "id": 3,
      "pos": [
        8,
        0
      ]
    },
    {
      "plugin": "Fundamental",
      "version": "1.0.0",
      "model": "VCF",
      "params": [
        {
          "value": 0.262999862
        },
        {
          "value": 0.5
        },
        {
          "value": 0.236999944
        },
        {
          "value": 0.869999945
        },
        {
          "value": 0.0
        }
      ],
      "id": 4,
      "pos": [
        18,
        0
      ]
    },
    {
      "plugin": "Core",
      "version": "1.dev",
      "model": "MIDIToCVInterface",
      "params": [],
      "data": {
        "divisions": [
          24,
          6
        ]
      },
      "id": 5,
      "pos": [
        0,
        0
      ]
    },
    {
      "plugin": "Fundamental",
      "version": "1.0.0",
      "model": "VCA-1",
      "params": [
        {
          "value": 1.0
        },
        {
          "value": 1.0
        }
      ],
      "id": 6,
      "pos": [
        26,
        0
      ]
    },
    {
      "plugin": "Fundamental",
      "version": "1.0.0",
      "model": "ADSR",
      "params": [
        {
          "value": 0.356000006
        },
        {
          "value": 0.671000004
        },
        {
          "value": 0.358999938
        },
        {
          "value": 0.5
        }
      ],
      "id": 7,
      "pos": [
        29,
        0
      ]
    }
  ],
  "cables": [
    {
      "id": 1,
      "outputModuleId": 5,
      "outputId": 0,
      "inputModuleId": 3,
      "inputId": 0,
      "color": "#c91847"
    },
    {
      "id": 2,
      "outputModuleId": 3,
      "outputId": 2,
      "inputModuleId": 4,
      "inputId": 3,
      "color": "#0c8e15"
    },
    {
      "id": 3,
      "outputModuleId": 4,
      "outputId": 0,
      "inputModuleId": 6,
      "inputId": 1,
      "color": "#0986ad"
    },
    {
      "id": 4,
      "outputModuleId": 6,
      "outputId": 0,
      "inputModuleId": 2,
      "inputId": 1,
      "color": "#c9b70e"
    },
    {
      "id": 5,
      "outputModuleId": 2,
      "outputId": 0,
      "inputModuleId": 1,
      "inputId": 0,
      "color": "#0986ad"
    },
    {
      "id": 6,
      "outputModuleId": 2,
      "outputId": 0,
      "inputModuleId": 1,
      "inputId": 1,
      "color": "#c9b70e"
    },
    {
      "id": 7,
      "outputModuleId": 7,
      "outputId": 0,
      "inputModuleId": 4,
      "inputId": 0,
      "color": "#c91847"
    },
    {
      "id": 8,
      "outputModuleId": 7,
      "outputId": 0,
      "inputModuleId": 6,
      "inputId": 0,
      "color": "#0c8e15"
    },
    {
      "id": 9,
      "outputModuleId": 5,
      "outputId": 1,
      "inputModuleId": 7,
      "inputId": 4,
      "color": "#c9b70e"
    }
  ]
}