{
  "version": "0.6.1",
  "oversampleFactor": 1.0,
  "oversampleQuality": 7.0,
  "oversampleNumIn": 8.0,
  "oversampleNumOut": 8.0,
  "idleDetect": 1.0,
  "modules": [
    {
      "plugin": "Geodesics",
      "version": "0.6.1",
      "vst2_unique_param_base_id": 1,
      "model": "Branes",
      "pos": [
        6,
        0
      ],
      "params": [
        {
          "paramId": 0,
          "value": 0.0
        },
        {
          "paramId": 1,
          "value": 0.0
        }
      ],
      "data": {
        "trigBypass0": 0.0,
        "trigBypass1": 0.0,
        "panelTheme": 0
      }
    },
    {
      "plugin": "Core",
      "version": "0.6.1",
      "vst2_unique_param_base_id": 5,
      "model": "AudioInterface",
      "pos": [
        73,
        0
      ],
      "params": [],
      "data": {
        "audio": {
          "driver": 0,
          "deviceName": "",
          "offset": 0,
          "maxChannels": 8,
          "sampleRate": 44100,
          "blockSize": 256
        }
      }
    },
    {
      "plugin": "JW-Modules",
      "version": "0.6.1",
      "vst2_unique_param_base_id": 13,
      "model": "Quantizer",
      "pos": [
        22,
        0
      ],
      "params": [
        {
          "paramId": 0,
          "value": 7.0
        },
        {
          "paramId": 1,
          "value": 12.0
        }
      ],
      "data": {}
    },
    {
      "plugin": "JW-Modules",
      "version": "0.6.1",
      "vst2_unique_param_base_id": 16,
      "model": "Quantizer",
      "pos": [
        26,
        0
      ],
      "params": [
        {
          "paramId": 0,
          "value": 7.0
        },
        {
          "paramId": 1,
          "value": 12.0
        }
      ],
      "data": {}
    },
    {
      "plugin": "Befaco",
      "version": "0.6.1",
      "vst2_unique_param_base_id": 19,
      "model": "DualAtenuverter",
      "pos": [
        17,
        0
      ],
      "params": [
        {
          "paramId": 0,
          "value": 0.301999897
        },
        {
          "paramId": 1,
          "value": 0.0
        },
        {
          "paramId": 2,
          "value": 0.276000023
        },
        {
          "paramId": 3,
          "value": 0.0
        }
      ]
    },
    {
      "plugin": "Bogaudio",
      "version": "0.6.1",
      "vst2_unique_param_base_id": 31,
      "model": "Bogaudio-FMOp",
      "pos": [
        30,
        0
      ],
      "params": [
        {
          "paramId": 0,
          "value": 0.0239999872
        },
        {
          "paramId": 1,
          "value": 0.0
        },
        {
          "paramId": 2,
          "value": 0.119999997
        },
        {
          "paramId": 3,
          "value": 0.316229999
        },
        {
          "paramId": 4,
          "value": 1.0
        },
        {
          "paramId": 5,
          "value": 0.316229999
        },
        {
          "paramId": 6,
          "value": 0.0
        },
        {
          "paramId": 7,
          "value": 0.425999969
        },
        {
          "paramId": 8,
          "value": 1.0
        },
        {
          "paramId": 9,
          "value": 0.0
        },
        {
          "paramId": 10,
          "value": 0.0
        },
        {
          "paramId": 11,
          "value": 0.0
        }
      ],
      "data": {
        "linearLevel": false
      }
    },
    {
      "plugin": "Bogaudio",
      "version": "0.6.1",
      "vst2_unique_param_base_id": 44,
      "model": "Bogaudio-FMOp",
      "pos": [
        40,
        0
      ],
      "params": [
        {
          "paramId": 0,
          "value": 0.0
        },
        {
          "paramId": 1,
          "value": 0.0
        },
        {
          "paramId": 2,
          "value": 0.119999997
        },
        {
          "paramId": 3,
          "value": 0.316229999
        },
        {
          "paramId": 4,
          "value": 1.0
        },
        {
          "paramId": 5,
          "value": 0.316229999
        },
        {
          "paramId": 6,
          "value": 0.0
        },
        {
          "paramId": 7,
          "value": 0.480000079
        },
        {
          "paramId": 8,
          "value": 1.0
        },
        {
          "paramId": 9,
          "value": 0.0
        },
        {
          "paramId": 10,
          "value": 0.0
        },
        {
          "paramId": 11,
          "value": 0.0
        }
      ],
      "data": {
        "linearLevel": false
      }
    },
    {
      "plugin": "Fundamental",
      "version": "0.6.1",
      "vst2_unique_param_base_id": 57,
      "model": "Scope",
      "pos": [
        50,
        0
      ],
      "params": [
        {
          "paramId": 0,
          "value": 2.0
        },
        {
          "paramId": 1,
          "value": -0.0599992573
        },
        {
          "paramId": 2,
          "value": 2.0
        },
        {
          "paramId": 3,
          "value": 0.0
        },
        {
          "paramId": 4,
          "value": -6.0
        },
        {
          "paramId": 5,
          "value": 0.0
        },
        {
          "paramId": 6,
          "value": 0.0
        },
        {
          "paramId": 7,
          "value": 0.0
        }
      ],
      "data": {
        "lissajous": 0,
        "external": 0
      }
    },
    {
      "plugin": "Valley",
      "version": "0.6.1",
      "vst2_unique_param_base_id": 66,
      "model": "Plateau",
      "pos": [
        63,
        1
      ],
      "params": [
        {
          "paramId": 0,
          "value": 1.0
        },
        {
          "paramId": 1,
          "value": 0.327500045
        },
        {
          "paramId": 2,
          "value": 0.0
        },
        {
          "paramId": 3,
          "value": 10.0
        },
        {
          "paramId": 4,
          "value": 10.0
        },
        {
          "paramId": 5,
          "value": 0.5
        },
        {
          "paramId": 6,
          "value": 10.0
        },
        {
          "paramId": 7,
          "value": 0.549950004
        },
        {
          "paramId": 9,
          "value": 10.0
        },
        {
          "paramId": 8,
          "value": 10.0
        },
        {
          "paramId": 10,
          "value": 0.163500041
        },
        {
          "paramId": 12,
          "value": 2.94800067
        },
        {
          "paramId": 11,
          "value": 0.5
        },
        {
          "paramId": 17,
          "value": 1.0
        },
        {
          "paramId": 18,
          "value": 1.0
        },
        {
          "paramId": 19,
          "value": 1.0
        },
        {
          "paramId": 20,
          "value": 1.0
        },
        {
          "paramId": 21,
          "value": 1.0
        },
        {
          "paramId": 22,
          "value": 1.0
        },
        {
          "paramId": 23,
          "value": 1.0
        },
        {
          "paramId": 25,
          "value": 1.0
        },
        {
          "paramId": 24,
          "value": 1.0
        },
        {
          "paramId": 26,
          "value": 1.0
        },
        {
          "paramId": 28,
          "value": 1.0
        },
        {
          "paramId": 27,
          "value": 1.0
        },
        {
          "paramId": 13,
          "value": 0.0
        },
        {
          "paramId": 15,
          "value": 0.0
        },
        {
          "paramId": 14,
          "value": 0.0
        },
        {
          "paramId": 29,
          "value": 0.0
        },
        {
          "paramId": 30,
          "value": 0.0
        }
      ],
      "data": {
        "frozen": false,
        "freezeToggle": false,
        "panelStyle": 0,
        "tuned": 0,
        "diffuseInput": 1
      }
    },
    {
      "plugin": "Fundamental",
      "version": "0.6.1",
      "vst2_unique_param_base_id": 109,
      "model": "VCMixer",
      "pos": [
        63,
        0
      ],
      "params": [
        {
          "paramId": 0,
          "value": 1.01999974
        },
        {
          "paramId": 1,
          "value": 1.0
        },
        {
          "paramId": 2,
          "value": 1.0
        },
        {
          "paramId": 3,
          "value": 1.0
        },
        {
          "paramId": 4,
          "value": 1.0
        }
      ]
    },
    {
      "plugin": "ImpromptuModular",
      "version": "0.6.11",
      "vst2_unique_param_base_id": 115,
      "model": "Clocked",
      "pos": [
        0,
        1
      ],
      "params": [
        {
          "paramId": 0,
          "value": 140.0
        },
        {
          "paramId": 12,
          "value": 0.0
        },
        {
          "paramId": 13,
          "value": 0.0
        },
        {
          "paramId": 18,
          "value": 0.0
        },
        {
          "paramId": 4,
          "value": 0.0
        },
        {
          "paramId": 8,
          "value": 0.5
        },
        {
          "paramId": 1,
          "value": 0.0
        },
        {
          "paramId": 5,
          "value": 0.0
        },
        {
          "paramId": 9,
          "value": 0.5
        },
        {
          "paramId": 15,
          "value": 0.0
        },
        {
          "paramId": 2,
          "value": 0.0
        },
        {
          "paramId": 6,
          "value": 0.0
        },
        {
          "paramId": 10,
          "value": 0.5
        },
        {
          "paramId": 16,
          "value": 0.0
        },
        {
          "paramId": 3,
          "value": 0.0
        },
        {
          "paramId": 7,
          "value": 0.0
        },
        {
          "paramId": 11,
          "value": 0.5
        },
        {
          "paramId": 17,
          "value": 0.0
        }
      ],
      "data": {
        "running": true,
        "panelTheme": 1,
        "expansion": 0,
        "displayDelayNoteMode": true,
        "bpmDetectionMode": false,
        "emitResetOnStopRun": false,
        "ppqn": 4
      }
    }
  ],
  "wires": [
    {
      "color": "#0986ad",
      "outputModuleId": 0,
      "outputId": 4,
      "inputModuleId": 4,
      "inputId": 0
    },
    {
      "color": "#c9b70e",
      "outputModuleId": 0,
      "outputId": 2,
      "inputModuleId": 4,
      "inputId": 1
    },
    {
      "color": "#c91847",
      "outputModuleId": 4,
      "outputId": 0,
      "inputModuleId": 2,
      "inputId": 2
    },
    {
      "color": "#0c8e15",
      "outputModuleId": 4,
      "outputId": 1,
      "inputModuleId": 3,
      "inputId": 2
    },
    {
      "color": "#0986ad",
      "outputModuleId": 2,
      "outputId": 0,
      "inputModuleId": 5,
      "inputId": 4
    },
    {
      "color": "#c9b70e",
      "outputModuleId": 3,
      "outputId": 0,
      "inputModuleId": 6,
      "inputId": 4
    },
    {
      "color": "#c91847",
      "outputModuleId": 2,
      "outputId": 0,
      "inputModuleId": 7,
      "inputId": 0
    },
    {
      "color": "#0c8e15",
      "outputModuleId": 3,
      "outputId": 0,
      "inputModuleId": 7,
      "inputId": 1
    },
    {
      "color": "#0c8e15",
      "outputModuleId": 5,
      "outputId": 0,
      "inputModuleId": 8,
      "inputId": 0
    },
    {
      "color": "#0986ad",
      "outputModuleId": 6,
      "outputId": 0,
      "inputModuleId": 8,
      "inputId": 1
    },
    {
      "color": "#c9b70e",
      "outputModuleId": 8,
      "outputId": 0,
      "inputModuleId": 9,
      "inputId": 1
    },
    {
      "color": "#c91847",
      "outputModuleId": 8,
      "outputId": 1,
      "inputModuleId": 9,
      "inputId": 2
    },
    {
      "color": "#0c8e15",
      "outputModuleId": 9,
      "outputId": 1,
      "inputModuleId": 1,
      "inputId": 0
    },
    {
      "color": "#0986ad",
      "outputModuleId": 9,
      "outputId": 2,
      "inputModuleId": 1,
      "inputId": 1
    },
    {
      "color": "#c9b70e",
      "outputModuleId": 0,
      "outputId": 6,
      "inputModuleId": 5,
      "inputId": 2
    },
    {
      "color": "#c91847",
      "outputModuleId": 0,
      "outputId": 0,
      "inputModuleId": 6,
      "inputId": 2
    },
    {
      "color": "#0c8e15",
      "outputModuleId": 10,
      "outputId": 0,
      "inputModuleId": 0,
      "inputId": 14
    },
    {
      "color": "#0986ad",
      "outputModuleId": 10,
      "outputId": 1,
      "inputModuleId": 5,
      "inputId": 5
    },
    {
      "color": "#c9b70e",
      "outputModuleId": 10,
      "outputId": 2,
      "inputModuleId": 6,
      "inputId": 5
    }
  ]
}