{
  "version": "0.6.1",
  "oversampleFactor": 1.0,
  "oversampleQuality": 7.0,
  "oversampleNumIn": 8.0,
  "oversampleNumOut": 8.0,
  "idleDetect": 0.0,
  "idleGraceSec": 0.300000012,
  "idleOutputSec": 0.200000003,
  "modules": [
    {
      "plugin": "Autodafe",
      "version": "0.6.1",
      "vst2_unique_param_base_id": 16,
      "model": "Clock Divider",
      "pos": [
        15,
        0
      ],
      "params": [
        {
          "paramId": 0,
          "value": 0.0
        }
      ]
    },
    {
      "plugin": "mental",
      "version": "0.6.1",
      "vst2_unique_param_base_id": 45,
      "model": "MentalMults",
      "pos": [
        19,
        0
      ],
      "params": []
    },
    {
      "plugin": "AudibleInstruments",
      "version": "0.6.3",
      "vst2_unique_param_base_id": 46,
      "model": "Kinks",
      "pos": [
        21,
        0
      ],
      "params": []
    },
    {
      "plugin": "AudibleInstruments",
      "version": "0.6.3",
      "vst2_unique_param_base_id": 47,
      "model": "Kinks",
      "pos": [
        25,
        0
      ],
      "params": []
    },
    {
      "plugin": "AudibleInstruments",
      "version": "0.6.3",
      "vst2_unique_param_base_id": 48,
      "model": "Kinks",
      "pos": [
        29,
        0
      ],
      "params": []
    },
    {
      "plugin": "AudibleInstruments",
      "version": "0.6.3",
      "vst2_unique_param_base_id": 61,
      "model": "Kinks",
      "pos": [
        55,
        0
      ],
      "params": []
    },
    {
      "plugin": "AudibleInstruments",
      "version": "0.6.3",
      "vst2_unique_param_base_id": 62,
      "model": "Branches",
      "pos": [
        59,
        0
      ],
      "params": [
        {
          "paramId": 0,
          "value": 0.215999961
        },
        {
          "paramId": 2,
          "value": 0.0
        },
        {
          "paramId": 1,
          "value": 0.5
        },
        {
          "paramId": 3,
          "value": 0.0
        }
      ],
      "data": {
        "modes": [
          false,
          false
        ]
      }
    },
    {
      "plugin": "Fundamental",
      "version": "0.6.2",
      "vst2_unique_param_base_id": 78,
      "model": "ADSR",
      "pos": [
        65,
        0
      ],
      "params": [
        {
          "paramId": 0,
          "value": 0.0
        },
        {
          "paramId": 1,
          "value": 0.339501321
        },
        {
          "paramId": 2,
          "value": 0.5
        },
        {
          "paramId": 3,
          "value": 0.5
        }
      ]
    },
    {
      "plugin": "AudibleInstruments",
      "version": "0.6.3",
      "vst2_unique_param_base_id": 89,
      "model": "Veils",
      "pos": [
        74,
        1
      ],
      "params": [
        {
          "paramId": 0,
          "value": 1.0
        },
        {
          "paramId": 1,
          "value": 0.0
        },
        {
          "paramId": 2,
          "value": 0.0
        },
        {
          "paramId": 3,
          "value": 0.0
        },
        {
          "paramId": 4,
          "value": 1.0
        },
        {
          "paramId": 5,
          "value": 1.0
        },
        {
          "paramId": 6,
          "value": 1.0
        },
        {
          "paramId": 7,
          "value": 1.0
        }
      ]
    },
    {
      "plugin": "Core",
      "version": "0.6.1",
      "vst2_unique_param_base_id": 98,
      "model": "AudioInterface",
      "pos": [
        86,
        1
      ],
      "params": [],
      "data": {
        "audio": {
          "driver": 0,
          "deviceName": "",
          "offset": 0,
          "maxChannels": 8,
          "sampleRate": 44100,
          "blockSize": 256
        }
      }
    },
    {
      "plugin": "mental",
      "version": "0.6.1",
      "vst2_unique_param_base_id": 99,
      "model": "MentalMults",
      "pos": [
        33,
        0
      ],
      "params": []
    },
    {
      "plugin": "Fundamental",
      "version": "0.6.2",
      "vst2_unique_param_base_id": 106,
      "model": "VCO",
      "pos": [
        45,
        0
      ],
      "params": [
        {
          "paramId": 0,
          "value": 1.0
        },
        {
          "paramId": 1,
          "value": 1.0
        },
        {
          "paramId": 2,
          "value": -11.826026
        },
        {
          "paramId": 3,
          "value": 0.0
        },
        {
          "paramId": 5,
          "value": 0.5
        },
        {
          "paramId": 4,
          "value": 0.400499374
        },
        {
          "paramId": 6,
          "value": 0.0
        }
      ]
    },
    {
      "plugin": "Fundamental",
      "version": "0.6.2",
      "vst2_unique_param_base_id": 114,
      "model": "VCO",
      "pos": [
        35,
        0
      ],
      "params": [
        {
          "paramId": 0,
          "value": 1.0
        },
        {
          "paramId": 1,
          "value": 1.0
        },
        {
          "paramId": 2,
          "value": -7.34399605
        },
        {
          "paramId": 3,
          "value": 0.0
        },
        {
          "paramId": 5,
          "value": 0.5
        },
        {
          "paramId": 4,
          "value": 0.0
        },
        {
          "paramId": 6,
          "value": 0.0
        }
      ]
    },
    {
      "plugin": "PG-Instruments",
      "version": "0.6.1",
      "vst2_unique_param_base_id": 153,
      "model": "PGVCF",
      "pos": [
        73,
        0
      ],
      "params": [
        {
          "paramId": 0,
          "value": 0.20500055
        },
        {
          "paramId": 1,
          "value": 0.253934979
        }
      ]
    },
    {
      "plugin": "Core",
      "version": "0.6.1",
      "vst2_unique_param_base_id": 156,
      "model": "MIDIToCVInterface",
      "pos": [
        0,
        0
      ],
      "params": [],
      "data": {
        "divisions": [
          24,
          6
        ],
        "midi": {
          "driver": -17545,
          "deviceName": "VST MIDI Input Device",
          "channel": -1
        }
      }
    },
    {
      "plugin": "Bogaudio",
      "version": "0.6.13",
      "vst2_unique_param_base_id": 157,
      "model": "Bogaudio-LLFO",
      "pos": [
        12,
        0
      ],
      "params": [
        {
          "paramId": 0,
          "value": -1.10350132
        },
        {
          "paramId": 1,
          "value": 0.0
        },
        {
          "paramId": 2,
          "value": 4.0
        },
        {
          "paramId": 3,
          "value": -0.0129995625
        },
        {
          "paramId": 4,
          "value": 1.0
        }
      ]
    },
    {
      "plugin": "JW-Modules",
      "version": "0.6.3",
      "vst2_unique_param_base_id": 163,
      "model": "Quantizer",
      "pos": [
        8,
        0
      ],
      "params": [
        {
          "paramId": 0,
          "value": 0.0
        },
        {
          "paramId": 1,
          "value": 11.0
        }
      ],
      "data": {}
    },
    {
      "plugin": "JW-Modules",
      "version": "0.6.3",
      "vst2_unique_param_base_id": 166,
      "model": "GridSeq",
      "pos": [
        0,
        1
      ],
      "params": [
        {
          "paramId": 0,
          "value": 0.0
        },
        {
          "paramId": 2,
          "value": 0.0
        },
        {
          "paramId": 39,
          "value": 0.0
        },
        {
          "paramId": 40,
          "value": 0.0
        },
        {
          "paramId": 41,
          "value": 0.0
        },
        {
          "paramId": 42,
          "value": 0.0
        },
        {
          "paramId": 43,
          "value": 0.0
        },
        {
          "paramId": 44,
          "value": 0.0
        },
        {
          "paramId": 36,
          "value": 0.0
        },
        {
          "paramId": 37,
          "value": 11.0
        },
        {
          "paramId": 38,
          "value": 0.0
        },
        {
          "paramId": 35,
          "value": 0.0
        },
        {
          "paramId": 45,
          "value": 5.0
        },
        {
          "paramId": 3,
          "value": 0.622707009
        },
        {
          "paramId": 19,
          "value": 0.0
        },
        {
          "paramId": 4,
          "value": 6.37090778
        },
        {
          "paramId": 20,
          "value": 0.0
        },
        {
          "paramId": 5,
          "value": 8.85474014
        },
        {
          "paramId": 21,
          "value": 0.0
        },
        {
          "paramId": 6,
          "value": 7.33816099
        },
        {
          "paramId": 22,
          "value": 1.0
        },
        {
          "paramId": 7,
          "value": 6.28149414
        },
        {
          "paramId": 23,
          "value": 0.0
        },
        {
          "paramId": 8,
          "value": 4.63695335
        },
        {
          "paramId": 24,
          "value": 1.0
        },
        {
          "paramId": 9,
          "value": 3.38011694
        },
        {
          "paramId": 25,
          "value": 1.0
        },
        {
          "paramId": 10,
          "value": 8.90530968
        },
        {
          "paramId": 26,
          "value": 0.0
        },
        {
          "paramId": 11,
          "value": 2.26511955
        },
        {
          "paramId": 27,
          "value": 1.0
        },
        {
          "paramId": 12,
          "value": 4.47884274
        },
        {
          "paramId": 28,
          "value": 0.0
        },
        {
          "paramId": 13,
          "value": 6.9518857
        },
        {
          "paramId": 29,
          "value": 1.0
        },
        {
          "paramId": 14,
          "value": 6.41084576
        },
        {
          "paramId": 30,
          "value": 1.0
        },
        {
          "paramId": 15,
          "value": 8.87743568
        },
        {
          "paramId": 31,
          "value": 1.0
        },
        {
          "paramId": 16,
          "value": 3.65834236
        },
        {
          "paramId": 32,
          "value": 1.0
        },
        {
          "paramId": 17,
          "value": 3.29111528
        },
        {
          "paramId": 33,
          "value": 1.0
        },
        {
          "paramId": 18,
          "value": 3.52553415
        },
        {
          "paramId": 34,
          "value": 0.0
        }
      ],
      "data": {
        "running": true,
        "ignoreGateOnPitchOut": false,
        "gates": [
          0,
          0,
          0,
          1,
          0,
          1,
          1,
          0,
          0,
          1,
          0,
          0,
          1,
          1,
          0,
          0
        ],
        "gateMode": 0
      }
    }
  ],
  "wires": [
    {
      "color": "#c9b70e",
      "outputModuleId": 8,
      "outputId": 0,
      "inputModuleId": 9,
      "inputId": 0
    },
    {
      "color": "#c91847",
      "outputModuleId": 8,
      "outputId": 0,
      "inputModuleId": 9,
      "inputId": 1
    },
    {
      "color": "#0c8e15",
      "outputModuleId": 13,
      "outputId": 1,
      "inputModuleId": 8,
      "inputId": 0
    },
    {
      "color": "#0986ad",
      "outputModuleId": 7,
      "outputId": 0,
      "inputModuleId": 8,
      "inputId": 1
    },
    {
      "color": "#c9b70e",
      "outputModuleId": 15,
      "outputId": 0,
      "inputModuleId": 0,
      "inputId": 0
    },
    {
      "color": "#c91847",
      "outputModuleId": 0,
      "outputId": 1,
      "inputModuleId": 10,
      "inputId": 0
    },
    {
      "color": "#0c8e15",
      "outputModuleId": 10,
      "outputId": 0,
      "inputModuleId": 1,
      "inputId": 0
    },
    {
      "color": "#0986ad",
      "outputModuleId": 1,
      "outputId": 0,
      "inputModuleId": 2,
      "inputId": 4
    },
    {
      "color": "#c9b70e",
      "outputModuleId": 1,
      "outputId": 1,
      "inputModuleId": 3,
      "inputId": 4
    },
    {
      "color": "#c91847",
      "outputModuleId": 1,
      "outputId": 2,
      "inputModuleId": 4,
      "inputId": 4
    },
    {
      "color": "#0c8e15",
      "outputModuleId": 10,
      "outputId": 1,
      "inputModuleId": 6,
      "inputId": 0
    },
    {
      "color": "#0986ad",
      "outputModuleId": 6,
      "outputId": 0,
      "inputModuleId": 7,
      "inputId": 4
    },
    {
      "color": "#c91847",
      "outputModuleId": 3,
      "outputId": 6,
      "inputModuleId": 13,
      "inputId": 1
    },
    {
      "color": "#0c8e15",
      "outputModuleId": 4,
      "outputId": 6,
      "inputModuleId": 7,
      "inputId": 1
    },
    {
      "color": "#0986ad",
      "outputModuleId": 2,
      "outputId": 6,
      "inputModuleId": 11,
      "inputId": 1
    },
    {
      "color": "#c91847",
      "outputModuleId": 12,
      "outputId": 0,
      "inputModuleId": 5,
      "inputId": 1
    },
    {
      "color": "#0c8e15",
      "outputModuleId": 5,
      "outputId": 3,
      "inputModuleId": 11,
      "inputId": 0
    },
    {
      "color": "#0986ad",
      "outputModuleId": 5,
      "outputId": 4,
      "inputModuleId": 13,
      "inputId": 0
    },
    {
      "color": "#c9b70e",
      "outputModuleId": 11,
      "outputId": 0,
      "inputModuleId": 5,
      "inputId": 2
    },
    {
      "color": "#c91847",
      "outputModuleId": 12,
      "outputId": 1,
      "inputModuleId": 11,
      "inputId": 2
    },
    {
      "color": "#0c8e15",
      "outputModuleId": 11,
      "outputId": 1,
      "inputModuleId": 12,
      "inputId": 0
    },
    {
      "color": "#0c8e15",
      "outputModuleId": 17,
      "outputId": 1,
      "inputModuleId": 16,
      "inputId": 2
    },
    {
      "color": "#c9b70e",
      "outputModuleId": 14,
      "outputId": 7,
      "inputModuleId": 17,
      "inputId": 8
    },
    {
      "color": "#c91847",
      "outputModuleId": 16,
      "outputId": 0,
      "inputModuleId": 15,
      "inputId": 0
    }
  ]
}