{
  "version": "0.6.1",
  "oversampleFactor": 1.0,
  "oversampleQuality": 7.0,
  "oversampleNumIn": 8.0,
  "oversampleNumOut": 8.0,
  "idleDetect": 0.0,
  "idleGraceSec": 0.75,
  "idleOutputSec": 0.200000003,
  "modules": [
    {
      "plugin": "Core",
      "version": "0.6.1",
      "vst2_unique_param_base_id": 5,
      "model": "AudioInterface",
      "pos": [
        78,
        0
      ],
      "params": [],
      "data": {
        "audio": {
          "driver": 0,
          "deviceName": "",
          "offset": 0,
          "maxChannels": 8,
          "sampleRate": 44100,
          "blockSize": 256
        }
      }
    },
    {
      "plugin": "JW-Modules",
      "version": "0.6.3",
      "vst2_unique_param_base_id": 13,
      "model": "Quantizer",
      "pos": [
        19,
        0
      ],
      "params": [
        {
          "paramId": 0,
          "value": 2.0
        },
        {
          "paramId": 1,
          "value": 11.0
        }
      ],
      "data": {}
    },
    {
      "plugin": "JW-Modules",
      "version": "0.6.3",
      "vst2_unique_param_base_id": 16,
      "model": "Quantizer",
      "pos": [
        23,
        0
      ],
      "params": [
        {
          "paramId": 0,
          "value": 2.0
        },
        {
          "paramId": 1,
          "value": 11.0
        }
      ],
      "data": {}
    },
    {
      "plugin": "Befaco",
      "version": "0.6.1",
      "vst2_unique_param_base_id": 19,
      "model": "DualAtenuverter",
      "pos": [
        25,
        1
      ],
      "params": [
        {
          "paramId": 0,
          "value": 0.0420004725
        },
        {
          "paramId": 1,
          "value": 0.119998962
        },
        {
          "paramId": 2,
          "value": 0.644999623
        },
        {
          "paramId": 3,
          "value": -1.7699976
        }
      ]
    },
    {
      "plugin": "Bogaudio",
      "version": "0.6.16",
      "vst2_unique_param_base_id": 31,
      "model": "Bogaudio-FMOp",
      "pos": [
        27,
        0
      ],
      "params": [
        {
          "paramId": 0,
          "value": -0.822998405
        },
        {
          "paramId": 1,
          "value": 0.0219995938
        },
        {
          "paramId": 2,
          "value": 0.307500124
        },
        {
          "paramId": 3,
          "value": 0.190499976
        },
        {
          "paramId": 4,
          "value": 1.0
        },
        {
          "paramId": 5,
          "value": 0.00150000001
        },
        {
          "paramId": 6,
          "value": 0.330000043
        },
        {
          "paramId": 7,
          "value": 0.425999969
        },
        {
          "paramId": 8,
          "value": 1.0
        },
        {
          "paramId": 9,
          "value": 0.0
        },
        {
          "paramId": 10,
          "value": 0.0
        },
        {
          "paramId": 11,
          "value": 1.0
        }
      ],
      "data": {
        "linearLevel": false
      }
    },
    {
      "plugin": "Bogaudio",
      "version": "0.6.16",
      "vst2_unique_param_base_id": 44,
      "model": "Bogaudio-FMOp",
      "pos": [
        37,
        0
      ],
      "params": [
        {
          "paramId": 0,
          "value": 0.0419999473
        },
        {
          "paramId": 1,
          "value": 0.0
        },
        {
          "paramId": 2,
          "value": 0.119999997
        },
        {
          "paramId": 3,
          "value": 0.316229999
        },
        {
          "paramId": 4,
          "value": 1.0
        },
        {
          "paramId": 5,
          "value": 0.316229999
        },
        {
          "paramId": 6,
          "value": 0.0
        },
        {
          "paramId": 7,
          "value": 0.0
        },
        {
          "paramId": 8,
          "value": 1.0
        },
        {
          "paramId": 9,
          "value": 0.0
        },
        {
          "paramId": 10,
          "value": 0.0
        },
        {
          "paramId": 11,
          "value": 0.0
        }
      ],
      "data": {
        "linearLevel": false
      }
    },
    {
      "plugin": "Valley",
      "version": "0.6.16",
      "vst2_unique_param_base_id": 66,
      "model": "Plateau",
      "pos": [
        68,
        1
      ],
      "params": [
        {
          "paramId": 0,
          "value": 1.0
        },
        {
          "paramId": 1,
          "value": 0.5
        },
        {
          "paramId": 2,
          "value": 0.0
        },
        {
          "paramId": 3,
          "value": 10.0
        },
        {
          "paramId": 4,
          "value": 10.0
        },
        {
          "paramId": 5,
          "value": 0.5
        },
        {
          "paramId": 6,
          "value": 10.0
        },
        {
          "paramId": 7,
          "value": 0.549950004
        },
        {
          "paramId": 9,
          "value": 10.0
        },
        {
          "paramId": 8,
          "value": 10.0
        },
        {
          "paramId": 10,
          "value": 0.0
        },
        {
          "paramId": 12,
          "value": 0.5
        },
        {
          "paramId": 11,
          "value": 0.5
        },
        {
          "paramId": 17,
          "value": 0.0
        },
        {
          "paramId": 18,
          "value": 0.0
        },
        {
          "paramId": 19,
          "value": 0.0
        },
        {
          "paramId": 20,
          "value": 0.0
        },
        {
          "paramId": 21,
          "value": 0.0
        },
        {
          "paramId": 22,
          "value": 0.0
        },
        {
          "paramId": 23,
          "value": 0.0
        },
        {
          "paramId": 25,
          "value": 0.0
        },
        {
          "paramId": 24,
          "value": 0.0
        },
        {
          "paramId": 26,
          "value": 0.0
        },
        {
          "paramId": 27,
          "value": 0.0
        },
        {
          "paramId": 28,
          "value": 0.0
        },
        {
          "paramId": 13,
          "value": 0.0
        },
        {
          "paramId": 15,
          "value": 0.0
        },
        {
          "paramId": 14,
          "value": 0.0
        },
        {
          "paramId": 29,
          "value": 0.0
        },
        {
          "paramId": 30,
          "value": 0.0
        }
      ],
      "data": {
        "frozen": false,
        "freezeToggle": false,
        "panelStyle": 0,
        "tuned": 0,
        "diffuseInput": 1,
        "preDelayCVSens": 0,
        "inputSensitivity": 0,
        "outputSaturation": 0
      }
    },
    {
      "plugin": "ImpromptuModular",
      "version": "0.6.16",
      "vst2_unique_param_base_id": 115,
      "model": "Clocked",
      "pos": [
        0,
        1
      ],
      "params": [
        {
          "paramId": 0,
          "value": 200.0
        },
        {
          "paramId": 12,
          "value": 0.0
        },
        {
          "paramId": 13,
          "value": 0.0
        },
        {
          "paramId": 18,
          "value": 0.0
        },
        {
          "paramId": 19,
          "value": 0.0
        },
        {
          "paramId": 4,
          "value": 0.356999993
        },
        {
          "paramId": 8,
          "value": 0.5
        },
        {
          "paramId": 1,
          "value": 0.0
        },
        {
          "paramId": 5,
          "value": 0.0
        },
        {
          "paramId": 9,
          "value": 0.5
        },
        {
          "paramId": 15,
          "value": 0.0
        },
        {
          "paramId": 2,
          "value": 0.0
        },
        {
          "paramId": 6,
          "value": 0.0
        },
        {
          "paramId": 10,
          "value": 0.5
        },
        {
          "paramId": 16,
          "value": 0.0
        },
        {
          "paramId": 3,
          "value": -2.0
        },
        {
          "paramId": 7,
          "value": 0.350999892
        },
        {
          "paramId": 11,
          "value": 0.505999923
        },
        {
          "paramId": 17,
          "value": 0.0
        }
      ],
      "data": {
        "running": true,
        "panelTheme": 1,
        "expansion": 0,
        "displayDelayNoteMode": true,
        "bpmDetectionMode": false,
        "emitResetOnStopRun": false,
        "ppqn": 4,
        "resetClockOutputsHigh": true
      }
    },
    {
      "plugin": "AS",
      "version": "0.6.13",
      "vst2_unique_param_base_id": 210,
      "model": "TriLFO",
      "pos": [
        30,
        1
      ],
      "params": [
        {
          "paramId": 2,
          "value": -5.6900034
        },
        {
          "paramId": 0,
          "value": 0.0
        },
        {
          "paramId": 1,
          "value": 1.0
        },
        {
          "paramId": 5,
          "value": 1.02999818
        },
        {
          "paramId": 3,
          "value": 1.0
        },
        {
          "paramId": 4,
          "value": 1.0
        },
        {
          "paramId": 8,
          "value": -4.99700022
        },
        {
          "paramId": 6,
          "value": 0.0
        },
        {
          "paramId": 7,
          "value": 0.0
        }
      ]
    },
    {
      "plugin": "Befaco",
      "version": "0.6.1",
      "vst2_unique_param_base_id": 229,
      "model": "DualAtenuverter",
      "pos": [
        58,
        1
      ],
      "params": [
        {
          "paramId": 0,
          "value": 0.0549990572
        },
        {
          "paramId": 1,
          "value": 0.390006781
        },
        {
          "paramId": 2,
          "value": 0.335999966
        },
        {
          "paramId": 3,
          "value": 4.68000078
        }
      ]
    },
    {
      "plugin": "Bogaudio",
      "version": "0.6.16",
      "vst2_unique_param_base_id": 233,
      "model": "Bogaudio-Mix4",
      "pos": [
        58,
        0
      ],
      "params": [
        {
          "paramId": 0,
          "value": 0.909090936
        },
        {
          "paramId": 1,
          "value": -0.00299996044
        },
        {
          "paramId": 2,
          "value": 0.0
        },
        {
          "paramId": 3,
          "value": 0.781591892
        },
        {
          "paramId": 4,
          "value": 1.0
        },
        {
          "paramId": 5,
          "value": 0.0
        },
        {
          "paramId": 6,
          "value": 0.771091104
        },
        {
          "paramId": 7,
          "value": -1.0
        },
        {
          "paramId": 8,
          "value": 0.0
        },
        {
          "paramId": 9,
          "value": 0.909090936
        },
        {
          "paramId": 10,
          "value": 0.0
        },
        {
          "paramId": 11,
          "value": 0.0
        },
        {
          "paramId": 12,
          "value": 0.909090936
        },
        {
          "paramId": 13,
          "value": 0.0
        }
      ]
    },
    {
      "plugin": "Bidoo",
      "version": "0.6.29",
      "vst2_unique_param_base_id": 249,
      "model": "Σ",
      "pos": [
        20,
        1
      ],
      "params": []
    },
    {
      "plugin": "Geodesics",
      "version": "0.6.6",
      "vst2_unique_param_base_id": 250,
      "model": "Ions",
      "pos": [
        0,
        0
      ],
      "params": [
        {
          "paramId": 2,
          "value": 0.202788591
        },
        {
          "paramId": 3,
          "value": 0.0080395937
        },
        {
          "paramId": 4,
          "value": 0.872189403
        },
        {
          "paramId": 5,
          "value": 0.279446721
        },
        {
          "paramId": 6,
          "value": 0.136598527
        },
        {
          "paramId": 7,
          "value": 0.488149166
        },
        {
          "paramId": 8,
          "value": 0.422023892
        },
        {
          "paramId": 9,
          "value": 0.790614069
        },
        {
          "paramId": 10,
          "value": 0.913320005
        },
        {
          "paramId": 11,
          "value": 0.993766487
        },
        {
          "paramId": 12,
          "value": 0.475051165
        },
        {
          "paramId": 13,
          "value": 0.289267182
        },
        {
          "paramId": 14,
          "value": 0.725681663
        },
        {
          "paramId": 15,
          "value": 0.577012181
        },
        {
          "paramId": 16,
          "value": 0.263583064
        },
        {
          "paramId": 17,
          "value": 0.962076843
        },
        {
          "paramId": 23,
          "value": 0.0
        },
        {
          "paramId": 27,
          "value": 0.0
        },
        {
          "paramId": 18,
          "value": 0.0
        },
        {
          "paramId": 19,
          "value": 0.0
        },
        {
          "paramId": 0,
          "value": 0.0
        },
        {
          "paramId": 1,
          "value": 0.0
        },
        {
          "paramId": 26,
          "value": 0.0
        },
        {
          "paramId": 25,
          "value": 0.0
        },
        {
          "paramId": 21,
          "value": 0.0
        },
        {
          "paramId": 22,
          "value": 0.0
        },
        {
          "paramId": 20,
          "value": 0.0
        },
        {
          "paramId": 24,
          "value": 0.0
        }
      ],
      "data": {
        "panelTheme": 0,
        "resetOnRun": true,
        "quantize": 3,
        "uncertainty": true,
        "running": true,
        "stepIndexes0": 14,
        "stepIndexes1": 1,
        "states0": 0,
        "states1": 2,
        "ranges0": 0,
        "ranges1": 1,
        "leap": false
      }
    },
    {
      "plugin": "Autodafe",
      "version": "0.6.1",
      "vst2_unique_param_base_id": 278,
      "model": "Chorus",
      "pos": [
        52,
        0
      ],
      "params": [
        {
          "paramId": 0,
          "value": 0.0
        },
        {
          "paramId": 2,
          "value": 0.00300000003
        }
      ]
    },
    {
      "plugin": "Bidoo",
      "version": "0.6.29",
      "vst2_unique_param_base_id": 282,
      "model": "Σ",
      "pos": [
        63,
        1
      ],
      "params": []
    },
    {
      "plugin": "ZZC",
      "version": "0.6.6",
      "vst2_unique_param_base_id": 283,
      "model": "SC-VCA",
      "pos": [
        73,
        0
      ],
      "params": [
        {
          "paramId": 0,
          "value": 0.27700001
        },
        {
          "paramId": 1,
          "value": 10.0
        },
        {
          "paramId": 2,
          "value": 0.5
        }
      ]
    }
  ],
  "wires": [
    {
      "color": "#0986ad",
      "outputModuleId": 10,
      "outputId": 0,
      "inputModuleId": 6,
      "inputId": 0
    },
    {
      "color": "#c9b70e",
      "outputModuleId": 10,
      "outputId": 1,
      "inputModuleId": 6,
      "inputId": 1
    },
    {
      "color": "#c91847",
      "outputModuleId": 6,
      "outputId": 0,
      "inputModuleId": 15,
      "inputId": 1
    },
    {
      "color": "#0c8e15",
      "outputModuleId": 6,
      "outputId": 1,
      "inputModuleId": 15,
      "inputId": 2
    },
    {
      "color": "#0c8e15",
      "outputModuleId": 7,
      "outputId": 0,
      "inputModuleId": 12,
      "inputId": 0
    },
    {
      "color": "#c91847",
      "outputModuleId": 12,
      "outputId": 0,
      "inputModuleId": 1,
      "inputId": 2
    },
    {
      "color": "#0c8e15",
      "outputModuleId": 1,
      "outputId": 0,
      "inputModuleId": 11,
      "inputId": 0
    },
    {
      "color": "#c91847",
      "outputModuleId": 11,
      "outputId": 0,
      "inputModuleId": 3,
      "inputId": 0
    },
    {
      "color": "#c9b70e",
      "outputModuleId": 4,
      "outputId": 0,
      "inputModuleId": 13,
      "inputId": 2
    },
    {
      "color": "#c91847",
      "outputModuleId": 3,
      "outputId": 0,
      "inputModuleId": 4,
      "inputId": 4
    },
    {
      "color": "#c91847",
      "outputModuleId": 13,
      "outputId": 0,
      "inputModuleId": 10,
      "inputId": 2
    },
    {
      "color": "#0c8e15",
      "outputModuleId": 8,
      "outputId": 0,
      "inputModuleId": 6,
      "inputId": 10
    },
    {
      "color": "#c91847",
      "outputModuleId": 8,
      "outputId": 11,
      "inputModuleId": 3,
      "inputId": 1
    },
    {
      "color": "#0c8e15",
      "outputModuleId": 3,
      "outputId": 1,
      "inputModuleId": 11,
      "inputId": 2
    },
    {
      "color": "#c91847",
      "outputModuleId": 5,
      "outputId": 0,
      "inputModuleId": 10,
      "inputId": 5
    },
    {
      "color": "#0c8e15",
      "outputModuleId": 8,
      "outputId": 5,
      "inputModuleId": 5,
      "inputId": 0
    },
    {
      "color": "#0986ad",
      "outputModuleId": 2,
      "outputId": 0,
      "inputModuleId": 5,
      "inputId": 4
    },
    {
      "color": "#c9b70e",
      "outputModuleId": 5,
      "outputId": 0,
      "inputModuleId": 10,
      "inputId": 8
    },
    {
      "color": "#c91847",
      "outputModuleId": 8,
      "outputId": 10,
      "inputModuleId": 10,
      "inputId": 7
    },
    {
      "color": "#0c8e15",
      "outputModuleId": 8,
      "outputId": 6,
      "inputModuleId": 10,
      "inputId": 4
    },
    {
      "color": "#c9b70e",
      "outputModuleId": 9,
      "outputId": 0,
      "inputModuleId": 2,
      "inputId": 2
    },
    {
      "color": "#c91847",
      "outputModuleId": 8,
      "outputId": 9,
      "inputModuleId": 9,
      "inputId": 0
    },
    {
      "color": "#0c8e15",
      "outputModuleId": 15,
      "outputId": 0,
      "inputModuleId": 0,
      "inputId": 0
    },
    {
      "color": "#c91847",
      "outputModuleId": 15,
      "outputId": 1,
      "inputModuleId": 0,
      "inputId": 1
    }
  ]
}