#N canvas 1546 620 327 235 10;
#N canvas 428 0 1031 993 send_OSC 0;
#X obj 327 45 cnv 15 305 63 empty empty empty 20 12 0 14 -262144 -66577
0;
#X obj 297 305 r OSC;
#X obj 76 9 import mrpeach;
#X obj 297 328 packOSC;
#X obj 349 366 udpsend;
#X obj 426 320 prepend connect;
#X obj 426 299 pack s f;
#X obj 473 270 fromsymbol;
#X msg 350 299 disconnect;
#X obj 519 203 t b s b;
#X obj 413 393 s def_ip;
#X obj 413 374 prepend set;
#X obj 372 209 t s s b;
#X obj 413 355 tosymbol;
#X obj 502 374 prepend set;
#X obj 502 355 tosymbol;
#X obj 75 32 loadbang;
#X obj 75 49 t b b b;
#X obj 39 160 s IP;
#X msg 201 124 7001;
#X obj 201 141 l2s;
#X msg 39 118 127.0.0.1;
#X obj 39 139 tosymbol;
#X obj 47 97 r def_ip;
#X obj 344 113 bng 15 250 50 0 empty empty empty 17 7 0 10 -262144
-1 -1;
#X text 363 110 Disconnect;
#X symbolatom 334 64 15 0 0 2 IP IP -, f 15;
#X symbolatom 490 64 7 0 0 2 Out_Port OUT_PORT -, f 7;
#X obj 201 158 s OUT_PORT;
#X text 338 79 (127.0.0.1 for local machine), f 14;
#X symbolatom 435 64 7 0 0 2 In_Port IN_PORT -, f 7;
#X obj 212 95 r def_out_port;
#X obj 502 393 s def_out_port;
#X obj 681 260 udpreceive 7000;
#X obj 681 277 unpackOSC;
#X obj 681 294 routeOSC /tsseq;
#N canvas 0 0 450 300 (subpatch) 0;
#X array active_steps 16 float 2 black black;
#X coords 0 100 16 -100 102 34 1;
#X restore 671 54 graph;
#N canvas 1215 119 450 438 draw_steps 0;
#X obj 148 82 unpack f f, f 13;
#X obj 182 132 swap;
#X obj 180 155 tabwrite active_steps;
#X obj 29 17 inlet;
#X obj 143 246 swap;
#X obj 141 334 ctlout;
#X obj 196 256 t b;
#X obj 38 136 s2l /;
#X obj 40 166 pack f f;
#X obj 165 216 expr if($f1 == 0 \, 0 \, $f2);
#X obj 265 185 t b;
#X obj 337 170 r step_color;
#X obj 146 51 print DEBUUUG;
#X obj 33 53 routeOSC /lbl;
#X obj 40 111 unpack s f;
#X msg 173 275 2;
#X obj 233 266 loadbang;
#X obj 144 180 - 1;
#X connect 0 0 17 0;
#X connect 0 1 1 1;
#X connect 0 1 9 0;
#X connect 1 0 2 0;
#X connect 1 1 2 1;
#X connect 3 0 13 0;
#X connect 4 0 5 0;
#X connect 4 1 5 1;
#X connect 4 1 6 0;
#X connect 6 0 15 0;
#X connect 7 0 8 0;
#X connect 8 0 0 0;
#X connect 9 0 4 1;
#X connect 10 0 8 0;
#X connect 11 0 9 1;
#X connect 11 0 10 0;
#X connect 13 0 12 0;
#X connect 13 1 14 0;
#X connect 14 0 7 0;
#X connect 14 1 8 1;
#X connect 15 0 5 2;
#X connect 16 0 15 0;
#X connect 17 0 4 0;
#X connect 17 0 1 0;
#X restore 727 538 pd draw_steps, f 14;
#N canvas 1392 399 450 562 playhead 0;
#X obj 240 230 tabread active_steps;
#X obj 150 170 f;
#X obj 134 39 inlet;
#X text 53 331 PLAYHEAD;
#X obj 78 435 ctlout;
#X obj 230 288 swap;
#X obj 227 413 ctlout;
#X obj 287 295 t b;
#X msg 280 321 2;
#X obj 226 348 pack f f f;
#X obj 60 217 t b f f;
#X obj 358 177 r step_color;
#X obj 239 249 expr if($f1 == 0 \, 0 \, $f2);
#X obj 49 394 pack f f 2;
#X obj 28 115 r step_color;
#X obj 144 142 delay 30;
#X floatatom 130 354 5 0 0 0 - - -, f 5;
#X obj 121 317 - 1;
#X obj 33 288 expr ($f1 + 64) % 127;
#X obj 218 193 - 1;
#X obj 179 236 - 1;
#X connect 0 0 12 0;
#X connect 1 0 19 0;
#X connect 1 0 20 0;
#X connect 2 0 10 0;
#X connect 5 0 9 0;
#X connect 5 1 7 0;
#X connect 5 1 9 1;
#X connect 7 0 8 0;
#X connect 8 0 9 2;
#X connect 9 0 6 0;
#X connect 10 0 15 0;
#X connect 10 0 18 0;
#X connect 10 1 17 0;
#X connect 10 2 1 1;
#X connect 11 0 12 1;
#X connect 12 0 5 1;
#X connect 13 0 4 0;
#X connect 14 0 18 0;
#X connect 15 0 1 0;
#X connect 17 0 13 1;
#X connect 17 0 16 0;
#X connect 18 0 13 0;
#X connect 19 0 0 0;
#X connect 20 0 5 0;
#X restore 681 383 pd playhead;
#X obj 681 240 prepend port;
#X obj 681 207 fromsymbol;
#X obj 718 142 t b s b;
#X msg 758 206 7000;
#X obj 103 138 tosymbol;
#X obj 111 95 r def_in_port;
#X obj 103 159 s IN_PORT;
#X obj 20 43 bng 15 250 50 0 empty empty empty 17 7 0 10 -262144 -1
-1;
#X obj 806 252 prepend set;
#X obj 806 233 tosymbol;
#X obj 806 271 s def_in_port;
#X obj 327 26 cnv 15 305 19 empty empty OSC\ Config 4 6 0 14 -2112
-262144 0;
#X obj 77 505 ctlin;
#X obj 79 529 swap;
#X obj 376 968 spigot;
#X text 417 1006 Send Step;
#X obj 378 872 spigot;
#X text 417 1019 Send step if ctrl btns not pressed;
#X obj 176 564 stripnote;
#X obj 59 907 prepend sendtyped /tsseq/play/state/tog i;
#X obj 71 864 prepend sendtyped /tsseq/play/len/set i;
#X obj 34 1023 prepend sendtyped /tsseq/edit/pat/set i;
#X obj 13 1090 prepend sendtyped /tsseq/edit/ch/set i;
#X obj 111 825 prepend sendtyped /tsseq/play/pat/set i;
#X obj 376 988 prepend sendtyped /tsseq/edit/step/tog i, f 47;
#X obj 47 976 s OSC;
#X msg 46 954 send /tsseq/reset/set, f 27;
#X obj 376 1012 s OSC;
#X obj 378 914 s OSC;
#X obj 69 885 s OSC;
#X obj 59 929 s OSC;
#X obj 111 842 s OSC;
#X obj 33 1046 s OSC;
#X obj 13 1107 s OSC;
#X obj 208 613 s press;
#X obj 376 942 r press;
#X obj 378 851 r press;
#X text 98 927 RUN;
#X text 88 974 RESET;
#X text 110 885 Set PLAY Length;
#X text 150 844 Set PLAY Pattern;
#X text 431 853 Jump to Step (Hold PATTERN Button), f 23;
#X obj 111 805 - 1;
#X obj 429 941 invert;
#X text 43 1068 Set *EDIT* Channel, f 47;
#X obj 16 1068 - 1;
#X text 69 999 Set *EDIT* Pattern;
#X obj 34 1000 - 1, f 4;
#X obj 69 820 f;
#X obj 111 783 f;
#X obj 69 793 t b;
#X obj 112 755 t b;
#X obj 561 840 loadbang;
#X msg 561 862 0;
#X obj 175 771 prepend sendtyped /tsseq/play/bpm/set f;
#X obj 176 750 / 100;
#X obj 174 796 s OSC;
#X text 216 794 Set BPM;
#X obj 70 554 pack f f f;
#X obj 70 577 route 1 2;
#X obj 91 222 loadbang;
#X obj 91 239 t b b b;
#X obj 127 310 l2s;
#X obj 29 307 tosymbol;
#X obj 36 233 bng 15 250 50 0 empty empty empty 17 7 0 10 -262144 -1
-1;
#X symbolatom 490 104 7 0 0 2 Out_Port OUT_PORT_V -, f 7;
#X symbolatom 435 104 7 0 0 2 - IN_PORT_V -, f 7;
#X text 436 118 from voltSeq, f 9;
#X text 496 118 to voltSeq, f 9;
#X obj 29 328 s IN_PORT_V;
#X obj 127 327 s OUT_PORT_V;
#X msg 29 285 7002;
#X msg 127 293 7003;
#X obj 37 264 r def_in_port_v;
#X obj 138 265 r def_out_port_v;
#X obj 592 700 unpackOSC;
#X obj 592 717 routeOSC /tsseq;
#X obj 592 663 prepend port;
#X obj 592 630 fromsymbol;
#X obj 573 459 t b s b;
#X obj 717 675 prepend set;
#X obj 717 656 tosymbol;
#X obj 717 694 s def_in_port;
#X msg 669 629 7002;
#X obj 592 683 udpreceive 7002;
#X obj 263 567 packOSC;
#X obj 315 605 udpsend;
#X obj 392 559 prepend connect;
#X obj 392 538 pack s f;
#X obj 439 509 fromsymbol;
#X msg 316 538 disconnect;
#X obj 485 442 t b s b;
#X obj 338 448 t s s b;
#X obj 468 613 prepend set;
#X obj 468 594 tosymbol;
#X obj 263 544 r OSC_V;
#X obj 468 632 s def_out_port_v;
#X obj 376 1061 r knob;
#X obj 376 1112 s OSC_V;
#X text 430 1110 Send voltage;
#N canvas 0 0 450 300 (subpatch) 0;
#X array step_values 16 float 2 black black;
#X coords 0 200 16 -100 102 34 1;
#X restore 795 57 graph;
#X obj 70 708 s knob;
#X obj 70 602 unpack f f;
#X obj 127 622 / 127;
#X obj 126 643 * 20;
#X obj 126 665 - 10;
#X obj 70 685 pack f f;
#X msg 103 116 7000;
#X obj 592 740 routeOSC /clock /play /edit;
#X obj 376 1088 prepend sendtyped /tsseq/edit/step if, f 47;
#X obj 378 892 prepend sendtyped /tsseq/play/step i, f 46;
#X obj 176 588 + 1;
#X obj 70 630 + 1;
#X text 622 265 trigSeq;
#X obj 681 319 routeOSC /clock /play /edit;
#X obj 759 351 routeOSC /step /ch;
#X obj 811 383 sel 1 2 3 4 5 6 7 8 9 10 11 12 13 14 15 16, f 43;
#X msg 811 466 85;
#X msg 821 446 68;
#X msg 831 426 61;
#X msg 851 466 50;
#X msg 861 446 23;
#X msg 871 426 6;
#X msg 891 466 111;
#X msg 901 446 95;
#X msg 931 466 85;
#X msg 941 446 68;
#X msg 951 426 61;
#X msg 971 466 50;
#X msg 981 446 23;
#X msg 991 426 6;
#X msg 1011 466 111;
#X msg 1021 446 95;
#X obj 896 498 s step_color, f 13;
#N canvas 1025 363 450 415 draw_volt_steps 0;
#X obj 53 145 unpack f f, f 13;
#X obj 76 172 swap;
#X obj 40 9 inlet;
#X obj 56 301 swap;
#X obj 53 358 ctlout;
#X obj 110 311 t b;
#X obj 76 199 tabwrite step_values;
#X obj 129 223 + 10;
#X obj 128 243 / 20;
#X obj 129 263 * 127;
#X obj 129 285 int;
#X obj 80 38 routeOSC /step/lbl;
#X obj 185 61 routeOSC /step;
#X obj 185 82 unpack s f;
#X obj 185 104 s2l /;
#X obj 185 126 pack f f;
#X msg 86 330 1;
#X obj 52 226 - 1;
#X obj 171 306 loadbang;
#X connect 0 0 1 0;
#X connect 0 0 17 0;
#X connect 0 1 1 1;
#X connect 0 1 7 0;
#X connect 1 0 6 0;
#X connect 1 1 6 1;
#X connect 2 0 11 0;
#X connect 3 0 4 0;
#X connect 3 1 4 1;
#X connect 3 1 5 0;
#X connect 5 0 16 0;
#X connect 7 0 8 0;
#X connect 8 0 9 0;
#X connect 9 0 10 0;
#X connect 10 0 3 1;
#X connect 11 1 12 0;
#X connect 12 0 13 0;
#X connect 13 0 14 0;
#X connect 13 1 15 1;
#X connect 14 0 15 0;
#X connect 15 0 0 0;
#X connect 16 0 4 2;
#X connect 17 0 3 0;
#X connect 18 0 16 0;
#X restore 670 805 pd draw_volt_steps;
#X connect 1 0 3 0;
#X connect 3 0 4 0;
#X connect 5 0 4 0;
#X connect 6 0 5 0;
#X connect 7 0 6 1;
#X connect 7 0 15 0;
#X connect 8 0 4 0;
#X connect 9 0 6 0;
#X connect 9 1 7 0;
#X connect 9 2 8 0;
#X connect 11 0 10 0;
#X connect 12 0 13 0;
#X connect 12 1 6 0;
#X connect 12 2 8 0;
#X connect 13 0 11 0;
#X connect 14 0 32 0;
#X connect 15 0 14 0;
#X connect 16 0 17 0;
#X connect 17 0 21 0;
#X connect 17 1 146 0;
#X connect 17 2 19 0;
#X connect 19 0 20 0;
#X connect 20 0 28 0;
#X connect 21 0 22 0;
#X connect 22 0 18 0;
#X connect 23 0 21 0;
#X connect 24 0 8 0;
#X connect 26 0 12 0;
#X connect 26 0 131 0;
#X connect 27 0 9 0;
#X connect 30 0 41 0;
#X connect 31 0 19 0;
#X connect 33 0 34 0;
#X connect 34 0 35 0;
#X connect 35 0 153 0;
#X connect 39 0 33 0;
#X connect 40 0 39 0;
#X connect 40 0 48 0;
#X connect 41 0 6 0;
#X connect 41 1 40 0;
#X connect 41 2 8 0;
#X connect 42 0 39 0;
#X connect 43 0 45 0;
#X connect 44 0 146 0;
#X connect 46 0 17 0;
#X connect 47 0 49 0;
#X connect 48 0 47 0;
#X connect 51 0 52 0;
#X connect 51 1 97 1;
#X connect 51 2 52 1;
#X connect 52 0 97 0;
#X connect 52 1 97 2;
#X connect 53 0 63 0;
#X connect 55 0 149 0;
#X connect 57 0 150 0;
#X connect 58 0 69 0;
#X connect 59 0 68 0;
#X connect 60 0 71 0;
#X connect 61 0 72 0;
#X connect 62 0 70 0;
#X connect 63 0 66 0;
#X connect 65 0 64 0;
#X connect 74 0 53 0;
#X connect 75 0 55 0;
#X connect 81 0 62 0;
#X connect 82 0 53 1;
#X connect 84 0 61 0;
#X connect 86 0 60 0;
#X connect 87 0 59 0;
#X connect 88 0 81 0;
#X connect 89 0 87 0;
#X connect 90 0 88 0;
#X connect 91 0 92 0;
#X connect 92 0 55 1;
#X connect 92 0 82 0;
#X connect 93 0 95 0;
#X connect 94 0 93 0;
#X connect 97 0 98 0;
#X connect 98 0 141 0;
#X connect 98 1 57 0;
#X connect 99 0 100 0;
#X connect 100 1 110 0;
#X connect 100 2 111 0;
#X connect 101 0 109 0;
#X connect 102 0 108 0;
#X connect 103 0 100 0;
#X connect 104 0 130 0;
#X connect 105 0 118 0;
#X connect 110 0 102 0;
#X connect 111 0 101 0;
#X connect 112 0 110 0;
#X connect 113 0 111 0;
#X connect 114 0 115 0;
#X connect 115 0 147 0;
#X connect 116 0 123 0;
#X connect 117 0 116 0;
#X connect 117 0 120 0;
#X connect 118 0 127 0;
#X connect 118 1 117 0;
#X connect 118 2 129 0;
#X connect 119 0 121 0;
#X connect 120 0 119 0;
#X connect 122 0 116 0;
#X connect 123 0 114 0;
#X connect 124 0 125 0;
#X connect 126 0 125 0;
#X connect 127 0 126 0;
#X connect 128 0 127 1;
#X connect 128 0 133 0;
#X connect 129 0 125 0;
#X connect 130 0 127 0;
#X connect 130 1 128 0;
#X connect 130 2 129 0;
#X connect 131 1 127 0;
#X connect 131 2 129 0;
#X connect 132 0 135 0;
#X connect 133 0 132 0;
#X connect 134 0 124 0;
#X connect 136 0 148 0;
#X connect 141 0 151 0;
#X connect 141 1 142 0;
#X connect 142 0 143 0;
#X connect 143 0 144 0;
#X connect 144 0 145 1;
#X connect 145 0 140 0;
#X connect 146 0 43 0;
#X connect 147 2 173 0;
#X connect 148 0 137 0;
#X connect 149 0 67 0;
#X connect 150 0 73 0;
#X connect 151 0 145 0;
#X connect 153 0 38 0;
#X connect 153 2 154 0;
#X connect 154 0 37 0;
#X connect 154 1 155 0;
#X connect 155 0 156 0;
#X connect 155 1 157 0;
#X connect 155 2 158 0;
#X connect 155 3 159 0;
#X connect 155 4 160 0;
#X connect 155 5 161 0;
#X connect 155 6 162 0;
#X connect 155 7 163 0;
#X connect 155 8 164 0;
#X connect 155 9 165 0;
#X connect 155 10 166 0;
#X connect 155 11 167 0;
#X connect 155 12 168 0;
#X connect 155 13 169 0;
#X connect 155 14 170 0;
#X connect 155 15 171 0;
#X connect 156 0 172 0;
#X connect 157 0 172 0;
#X connect 158 0 172 0;
#X connect 159 0 172 0;
#X connect 160 0 172 0;
#X connect 161 0 172 0;
#X connect 162 0 172 0;
#X connect 163 0 172 0;
#X connect 164 0 172 0;
#X connect 165 0 172 0;
#X connect 166 0 172 0;
#X connect 167 0 172 0;
#X connect 168 0 172 0;
#X connect 169 0 172 0;
#X connect 170 0 172 0;
#X connect 171 0 172 0;
#X coords 0 -1 1 1 325 157 2 326 25;
#X restore 9 37 pd send_OSC;
#X text 5 3 Be sure to select your MIDI Fighter Twister as the first
MIDI input and output device in PD preferences, f 52;
