#N canvas 441 22 1158 775 10;
#X obj 207 70 cnv 15 375 168 empty empty empty 20 12 0 14 -233017 -66577
0;
#X text 6 7 Be sure to select your MIDI Fighter Twister as the first
MIDI input and output device in PD preferences, f 52;
#X obj 14 76 import mrpeach;
#X obj 240 161 packOSC;
#X obj 232 187 udpsend;
#X msg 293 161 disconnect;
#X obj 494 351 udpreceive 7000;
#X obj 494 368 unpackOSC;
#X obj 494 385 routeOSC /tsseq;
#N canvas 0 22 450 300 (subpatch) 0;
#X array active_steps 16 float 2 black black;
#X coords 0 100 16 -100 102 34 1;
#X restore 436 264 graph;
#X obj 13 47 cnv 15 305 19 empty empty OSC\ Config 4 6 0 14 -2112 -262144
0;
#X obj 29 129 ctlin;
#X obj 31 153 swap;
#X obj 121 226 stripnote;
#X obj 121 271 prepend sendtyped /tsseq/edit/step/tog i, f 47;
#X text 275 471 Set *EDIT* Channel, f 20;
#X obj 22 178 pack f f f;
#X obj 741 48 unpackOSC;
#X obj 741 65 routeOSC /tsseq;
#X obj 741 31 udpreceive 7002;
#X obj 402 162 packOSC;
#X obj 389 188 udpsend;
#X msg 455 162 disconnect;
#N canvas 0 22 450 300 (subpatch) 0;
#X array step_values 16 float 2 black black;
#X coords 0 200 16 -100 102 34 1;
#X restore 552 264 graph;
#X obj 22 226 unpack f f;
#X obj 79 246 / 127;
#X obj 79 265 * 20;
#X obj 79 284 - 10;
#X obj 22 303 pack f f;
#X obj 741 88 routeOSC /clock /play /edit;
#X obj 44 328 prepend sendtyped /tsseq/edit/step if, f 47;
#X obj 121 246 + 1;
#X obj 22 254 + 1;
#X obj 494 410 routeOSC /clock /play /edit;
#X obj 746 432 routeOSC /step /ch;
#X obj 798 455 sel 1 2 3 4 5 6 7 8 9 10 11 12 13 14 15 16, f 43;
#X msg 802 522 85;
#X msg 812 502 68;
#X msg 822 482 61;
#X msg 842 522 50;
#X msg 852 502 23;
#X msg 862 482 6;
#X msg 882 522 111;
#X msg 892 502 95;
#X msg 922 522 85;
#X msg 932 502 68;
#X msg 942 482 61;
#X msg 962 522 50;
#X msg 972 502 23;
#X msg 982 482 6;
#X msg 1002 522 111;
#X msg 1012 502 95;
#X obj 882 561 s step_color, f 13;
#X msg 232 117 connect 127.0.0.1 7001;
#X msg 389 116 connect 127.0.0.1 7003;
#X text 265 73 loadbang auto-sends a bang when the patch loads;
#X obj 212 74 loadbang;
#X obj 402 139 r volt_OSC;
#X obj 240 138 r trig_OSC;
#X obj 121 292 s trig_OSC;
#X obj 44 350 s volt_OSC;
#X text 113 346 Send knob values to voltSeq OSC sender;
#X text 150 253 Send button presses to trigSeq OSC sender;
#X text 315 88 to make the OSC output connections...;
#X text 494 333 trigSeq OSC receiver;
#X text 740 13 voltSeq OSC receiver;
#X obj 22 201 route 1 2 4;
#X obj 51 389 route 8 10 11 13;
#X obj 95 462 sel 127;
#X obj 220 385 loadbang;
#X obj 254 436 f, f 6;
#X obj 212 462 + 1;
#X obj 195 491 f;
#X obj 110 431 sel 127;
#X obj 160 492 f;
#X obj 213 438 % 16;
#X obj 220 407 0;
#X obj 240 547 s trig_OSC;
#X obj 240 490 prepend sendtyped /tsseq/edit/ch i;
#X obj 240 461 + 1;
#X obj 162 465 + 15;
#X obj 250 527 s volt_OSC;
#X obj 33 604 sel 127;
#X obj 158 527 loadbang;
#X obj 192 578 f, f 6;
#X obj 150 604 + 1;
#X obj 133 633 f;
#X obj 48 573 sel 127;
#X obj 98 634 f;
#X obj 158 549 0;
#X obj 178 689 s trig_OSC;
#X obj 178 603 + 1;
#X obj 188 669 s volt_OSC;
#X text 209 612 Set *EDIT* Pattern, f 23;
#X obj 151 580 % 64;
#X obj 100 607 + 63;
#X obj 178 632 prepend sendtyped /tsseq/edit/pat i;
#X obj 906 215 unpack f f, f 13;
#X obj 929 242 swap;
#X obj 906 368 swap;
#X obj 906 419 ctlout;
#X obj 960 378 t b;
#X obj 929 269 tabwrite step_values;
#X obj 982 293 + 10;
#X obj 981 313 / 20;
#X obj 982 333 * 127;
#X obj 982 352 int;
#X obj 847 112 routeOSC /step/lbl;
#X obj 906 135 routeOSC /step;
#X obj 906 155 unpack s f;
#X obj 906 175 s2l /;
#X obj 906 195 pack f f;
#X msg 936 397 1;
#X obj 906 296 - 1;
#X obj 1021 373 loadbang;
#X text 473 297 step tracking tables;
#X obj 509 530 tabread active_steps;
#X obj 483 485 f;
#X obj 581 662 ctlout;
#X obj 483 572 swap;
#X obj 483 632 ctlout;
#X obj 540 571 t b;
#X msg 540 590 2;
#X obj 483 609 pack f f f;
#X obj 493 433 t b f f;
#X obj 656 530 r step_color;
#X obj 509 549 expr if($f1 == 0 \, 0 \, $f2);
#X obj 581 642 pack f f 2;
#X obj 581 576 r step_color;
#X obj 483 466 delay 30;
#X obj 609 620 - 1;
#X obj 581 599 expr ($f1 + 64) % 127;
#X obj 509 511 - 1;
#X obj 483 549 - 1;
#X text 535 510 PLAYHEAD Display;
#X obj 761 646 unpack f f, f 13;
#X obj 799 671 swap;
#X obj 797 694 tabwrite active_steps;
#X obj 761 764 swap;
#X obj 761 828 ctlout;
#X obj 794 786 t b;
#X obj 761 600 s2l /;
#X obj 761 624 pack f f;
#X obj 782 743 expr if($f1 == 0 \, 0 \, $f2);
#X obj 882 717 t b;
#X obj 938 694 r step_color;
#X obj 747 557 routeOSC /lbl;
#X obj 761 580 unpack s f;
#X msg 794 807 2;
#X obj 824 785 loadbang;
#X obj 761 712 - 1;
#X connect 3 0 4 0;
#X connect 5 0 4 0;
#X connect 6 0 7 0;
#X connect 7 0 8 0;
#X connect 8 0 33 0;
#X connect 11 0 12 0;
#X connect 11 1 16 1;
#X connect 11 2 12 1;
#X connect 12 0 16 0;
#X connect 12 1 16 2;
#X connect 13 0 31 0;
#X connect 14 0 59 0;
#X connect 16 0 66 0;
#X connect 17 0 18 0;
#X connect 18 0 29 0;
#X connect 19 0 17 0;
#X connect 20 0 21 0;
#X connect 22 0 21 0;
#X connect 24 0 32 0;
#X connect 24 1 25 0;
#X connect 25 0 26 0;
#X connect 26 0 27 0;
#X connect 27 0 28 1;
#X connect 28 0 30 0;
#X connect 29 2 107 0;
#X connect 30 0 60 0;
#X connect 31 0 14 0;
#X connect 32 0 28 0;
#X connect 33 0 124 0;
#X connect 33 2 34 0;
#X connect 34 0 146 0;
#X connect 34 1 35 0;
#X connect 35 0 36 0;
#X connect 35 1 37 0;
#X connect 35 2 38 0;
#X connect 35 3 39 0;
#X connect 35 4 40 0;
#X connect 35 5 41 0;
#X connect 35 6 42 0;
#X connect 35 7 43 0;
#X connect 35 8 44 0;
#X connect 35 9 45 0;
#X connect 35 10 46 0;
#X connect 35 11 47 0;
#X connect 35 12 48 0;
#X connect 35 13 49 0;
#X connect 35 14 50 0;
#X connect 35 15 51 0;
#X connect 36 0 52 0;
#X connect 37 0 52 0;
#X connect 38 0 52 0;
#X connect 39 0 52 0;
#X connect 40 0 52 0;
#X connect 41 0 52 0;
#X connect 42 0 52 0;
#X connect 43 0 52 0;
#X connect 44 0 52 0;
#X connect 45 0 52 0;
#X connect 46 0 52 0;
#X connect 47 0 52 0;
#X connect 48 0 52 0;
#X connect 49 0 52 0;
#X connect 50 0 52 0;
#X connect 51 0 52 0;
#X connect 53 0 4 0;
#X connect 54 0 21 0;
#X connect 56 0 54 0;
#X connect 56 0 53 0;
#X connect 57 0 20 0;
#X connect 58 0 3 0;
#X connect 66 0 24 0;
#X connect 66 1 13 0;
#X connect 66 2 67 0;
#X connect 67 0 82 0;
#X connect 67 1 87 0;
#X connect 67 2 68 0;
#X connect 67 3 73 0;
#X connect 68 0 72 0;
#X connect 69 0 76 0;
#X connect 70 0 75 0;
#X connect 71 0 72 1;
#X connect 72 0 70 0;
#X connect 73 0 74 0;
#X connect 74 0 70 0;
#X connect 75 0 79 0;
#X connect 75 0 80 0;
#X connect 75 0 71 0;
#X connect 76 0 70 0;
#X connect 78 0 77 0;
#X connect 78 0 81 0;
#X connect 79 0 78 0;
#X connect 80 0 74 1;
#X connect 82 0 86 0;
#X connect 83 0 89 0;
#X connect 84 0 94 0;
#X connect 85 0 86 1;
#X connect 86 0 84 0;
#X connect 87 0 88 0;
#X connect 88 0 84 0;
#X connect 89 0 84 0;
#X connect 91 0 96 0;
#X connect 94 0 91 0;
#X connect 94 0 85 0;
#X connect 94 0 95 0;
#X connect 95 0 88 1;
#X connect 96 0 90 0;
#X connect 96 0 92 0;
#X connect 97 0 98 0;
#X connect 97 0 113 0;
#X connect 97 1 98 1;
#X connect 97 1 103 0;
#X connect 98 0 102 0;
#X connect 98 1 102 1;
#X connect 99 0 100 0;
#X connect 99 1 100 1;
#X connect 99 1 101 0;
#X connect 101 0 112 0;
#X connect 103 0 104 0;
#X connect 104 0 105 0;
#X connect 105 0 106 0;
#X connect 106 0 99 1;
#X connect 107 1 108 0;
#X connect 108 0 109 0;
#X connect 109 0 110 0;
#X connect 109 1 111 1;
#X connect 110 0 111 0;
#X connect 111 0 97 0;
#X connect 112 0 100 2;
#X connect 113 0 99 0;
#X connect 114 0 112 0;
#X connect 116 0 126 0;
#X connect 117 0 132 0;
#X connect 117 0 133 0;
#X connect 119 0 123 0;
#X connect 119 1 121 0;
#X connect 119 1 123 1;
#X connect 121 0 122 0;
#X connect 122 0 123 2;
#X connect 123 0 120 0;
#X connect 124 0 129 0;
#X connect 124 0 131 0;
#X connect 124 1 130 0;
#X connect 124 2 117 1;
#X connect 125 0 126 1;
#X connect 126 0 119 1;
#X connect 127 0 118 0;
#X connect 128 0 131 0;
#X connect 129 0 117 0;
#X connect 130 0 127 1;
#X connect 131 0 127 0;
#X connect 132 0 116 0;
#X connect 133 0 119 0;
#X connect 135 0 150 0;
#X connect 135 1 136 1;
#X connect 135 1 143 0;
#X connect 136 0 137 0;
#X connect 136 1 137 1;
#X connect 138 0 139 0;
#X connect 138 1 139 1;
#X connect 138 1 140 0;
#X connect 140 0 148 0;
#X connect 141 0 142 0;
#X connect 142 0 135 0;
#X connect 143 0 138 1;
#X connect 144 0 142 0;
#X connect 145 0 143 1;
#X connect 145 0 144 0;
#X connect 146 1 147 0;
#X connect 147 0 141 0;
#X connect 147 1 142 1;
#X connect 148 0 139 2;
#X connect 149 0 148 0;
#X connect 150 0 138 0;
#X connect 150 0 136 0;
