#N canvas 773 237 565 518 10;
#X obj 14 14 import mrpeach;
#X obj 14 43 udpreceive 7000;
#X obj 14 65 unpackOSC;
#X obj 14 493 noteout;
#X obj 14 454 makenote 100 500;
#X obj 14 87 routeOSC /trowacv/ch;
#X obj 14 109 routeOSC /1 /2 /3 /4;
#X obj 14 435 expr int(($f1 + 5) / 10 * 127) - 1;
#X obj 318 44 routeOSC /5 /6 /7 /8;
#X obj 14 473 pack f f 1;
#X text 68 487 ^ MIDI Channel;
#X text 118 454 < Note Velocity and Duration;
#X obj 329 404 expr int(($f1 + 5) / 10 * 127) - 1;
#X obj 330 471 pack f f 1;
#X text 384 484 ^ MIDI Channel;
#X obj 330 492 ctlout;
#X obj 24 413 noteout;
#X obj 24 374 makenote 100 500;
#X obj 24 355 expr int(($f1 + 5) / 10 * 127) - 1;
#X text 78 407 ^ MIDI Channel;
#X text 128 374 < Note Velocity and Duration;
#X obj 34 333 noteout;
#X obj 34 294 makenote 100 500;
#X obj 34 275 expr int(($f1 + 5) / 10 * 127) - 1;
#X text 88 327 ^ MIDI Channel;
#X text 138 294 < Note Velocity and Duration;
#X obj 44 253 noteout;
#X obj 44 214 makenote 100 500;
#X obj 44 195 expr int(($f1 + 5) / 10 * 127) - 1;
#X text 98 247 ^ MIDI Channel;
#X text 148 214 < Note Velocity and Duration;
#X obj 24 393 pack f f 2;
#X obj 34 313 pack f f 3;
#X obj 44 233 pack f f 4;
#X obj 358 429 t b;
#X msg 358 451 1;
#X text 383 450 < MIDI CC #;
#X obj 339 294 expr int(($f1 + 5) / 10 * 127) - 1;
#X obj 340 361 pack f f 1;
#X text 394 374 ^ MIDI Channel;
#X obj 340 382 ctlout;
#X obj 368 319 t b;
#X text 393 340 < MIDI CC #;
#X obj 349 184 expr int(($f1 + 5) / 10 * 127) - 1;
#X obj 350 251 pack f f 1;
#X text 404 264 ^ MIDI Channel;
#X obj 350 272 ctlout;
#X obj 378 209 t b;
#X text 403 230 < MIDI CC #;
#X obj 359 74 expr int(($f1 + 5) / 10 * 127) - 1;
#X obj 360 141 pack f f 1;
#X text 414 154 ^ MIDI Channel;
#X obj 360 162 ctlout;
#X obj 388 99 t b;
#X text 413 120 < MIDI CC #;
#X msg 368 341 2;
#X msg 378 231 3;
#X msg 388 121 4;
#X connect 1 0 2 0;
#X connect 2 0 5 0;
#X connect 4 0 9 0;
#X connect 4 1 9 1;
#X connect 5 0 6 0;
#X connect 6 0 7 0;
#X connect 6 1 18 0;
#X connect 6 2 23 0;
#X connect 6 3 28 0;
#X connect 6 4 8 0;
#X connect 7 0 4 0;
#X connect 8 0 12 0;
#X connect 8 1 37 0;
#X connect 8 2 43 0;
#X connect 8 3 49 0;
#X connect 9 0 3 0;
#X connect 12 0 13 0;
#X connect 12 0 34 0;
#X connect 13 0 15 0;
#X connect 17 0 31 0;
#X connect 17 1 31 1;
#X connect 18 0 17 0;
#X connect 22 0 32 0;
#X connect 22 1 32 1;
#X connect 23 0 22 0;
#X connect 27 0 33 0;
#X connect 27 1 33 1;
#X connect 28 0 27 0;
#X connect 31 0 16 0;
#X connect 32 0 21 0;
#X connect 33 0 26 0;
#X connect 34 0 35 0;
#X connect 35 0 13 1;
#X connect 37 0 38 0;
#X connect 37 0 41 0;
#X connect 38 0 40 0;
#X connect 41 0 55 0;
#X connect 43 0 44 0;
#X connect 43 0 47 0;
#X connect 44 0 46 0;
#X connect 47 0 56 0;
#X connect 49 0 50 0;
#X connect 49 0 53 0;
#X connect 50 0 52 0;
#X connect 53 0 57 0;
#X connect 55 0 38 1;
#X connect 56 0 44 1;
#X connect 57 0 50 1;
